<?xml version="1.0" encoding="utf-8"?>
<!-- Generator: Adobe Illustrator 24.0.2, SVG Export Plug-In . SVG Version: 6.00 Build 0)  -->
<svg version="1.0" id="Layer_1" xmlns="http://www.w3.org/2000/svg" xmlns:xlink="http://www.w3.org/1999/xlink" x="0px" y="0px"
	 viewBox="0 0 94.2 28.3" style="enable-background:new 0 0 94.2 28.3;" xml:space="preserve">
<style type="text/css">
	.st0{enable-background:new    ;}
	.st1{fill:#FDC202;}
	.st2{fill:#F4F4F4;}
</style>
<g>
	<g class="st0">
		<path class="st1" d="M16.7,7.8c0.3,0.6,0.5,1.1,0.8,1.4c0.5,0.6,1.2,1,2,1c0.5,0,0.8-0.1,1.2-0.5c0.3-0.3,0.5-0.6,0.5-1.2
			c0-0.5-0.2-0.8-0.5-1.2c-0.2-0.2-0.6-0.5-1.4-1l-1.2-0.6c-0.4-0.3-0.6-0.5-0.8-0.6c-0.4-0.5-0.6-0.9-0.6-1.4
			c0-0.6,0.3-1.3,0.6-1.7c0.5-0.5,1.1-0.6,1.8-0.6c0.3,0,0.6,0.1,1.2,0.3c0.5,0.2,0.7,0.2,0.8,0.2c0.2,0,0.3-0.1,0.4-0.1
			c0.1-0.1,0.1-0.2,0.1-0.4h0.3l0.3,2.9h-0.4c-0.3-0.8-0.6-1.5-1.1-1.8S19.7,2,19.2,2c-0.4,0-0.7,0.1-1,0.3
			c-0.3,0.3-0.5,0.5-0.5,0.9s0.1,0.6,0.3,0.9c0.3,0.3,0.6,0.5,1,0.8l1.2,0.7c0.7,0.5,1.3,0.9,1.5,1.3c0.3,0.4,0.5,0.8,0.5,1.4
			c0,0.7-0.3,1.4-0.8,1.8c-0.5,0.5-1.2,0.7-2.1,0.7c-0.5,0-0.8-0.1-1.4-0.3c-0.5-0.2-0.8-0.3-0.8-0.3c-0.2,0-0.3,0.1-0.3,0.1
			c-0.1,0.1-0.1,0.2-0.1,0.3h-0.3l-0.2-2.8H16.7z"/>
		<path class="st1" d="M28.1,4.9c0.5,0.5,0.7,1,0.7,1.8h-4.2c0.1,1,0.3,1.7,0.7,2.3c0.5,0.5,0.9,0.7,1.5,0.7c0.5,0,0.8-0.1,1.2-0.4
			c0.4-0.3,0.6-0.6,0.9-1l0.2,0.1c-0.2,0.5-0.5,1.1-1,1.5c-0.5,0.5-1.1,0.7-1.8,0.7c-0.8,0-1.4-0.3-1.9-1c-0.5-0.6-0.6-1.4-0.6-2.2
			c0-0.9,0.3-1.6,0.8-2.3c0.5-0.6,1.2-1,2.1-1C27.1,4.3,27.7,4.4,28.1,4.9z M25,5.3c-0.1,0.3-0.3,0.5-0.3,0.9h2.8
			c-0.1-0.5-0.1-0.8-0.3-1C27,5,26.6,4.7,26.1,4.7C25.6,4.7,25.2,5,25,5.3z"/>
		<path class="st1" d="M30.9,7.6C31.3,7.3,32,7,33.3,6.5V6c0-0.5-0.1-0.8-0.1-1c-0.1-0.3-0.5-0.5-1-0.5c-0.3,0-0.5,0.1-0.6,0.2
			c-0.2,0.1-0.3,0.3-0.3,0.5c0,0.1,0,0.1,0.1,0.3c0,0.1,0.1,0.2,0.1,0.3c0,0.3-0.1,0.5-0.3,0.5c-0.1,0.1-0.2,0.1-0.4,0.1
			s-0.4-0.1-0.5-0.2c-0.1-0.1-0.2-0.3-0.2-0.5c0-0.3,0.2-0.6,0.6-1c0.4-0.4,1-0.5,1.7-0.5c0.8,0,1.4,0.3,1.7,0.8
			c0.2,0.3,0.3,0.7,0.3,1.4V9c0,0.3,0,0.5,0.1,0.5c0.1,0.2,0.2,0.3,0.4,0.3c0.1,0,0.2,0,0.3-0.1c0.1-0.1,0.2-0.1,0.4-0.3v0.4
			c-0.1,0.2-0.3,0.3-0.5,0.5c-0.3,0.2-0.5,0.3-0.8,0.3c-0.3,0-0.5-0.1-0.6-0.3c-0.1-0.2-0.2-0.5-0.3-0.7c-0.4,0.3-0.6,0.5-0.8,0.6
			c-0.5,0.3-0.8,0.4-1.2,0.4c-0.4,0-0.7-0.1-1-0.5c-0.3-0.3-0.5-0.6-0.5-1C29.9,8.5,30.2,8,30.9,7.6z M33.3,6.8
			C32.9,7,32.4,7.1,32,7.3c-0.6,0.5-1,0.8-1,1.4c0,0.5,0.1,0.7,0.5,0.9c0.2,0.1,0.4,0.2,0.6,0.2c0.3,0,0.5-0.1,0.8-0.3
			c0.3-0.2,0.5-0.4,0.5-0.6L33.3,6.8L33.3,6.8z"/>
		<path class="st1" d="M35.7,10.3c0.5-0.1,0.6-0.1,0.8-0.3c0.1-0.1,0.3-0.4,0.3-0.7V2.8c0-0.3,0-0.5-0.1-0.6
			c-0.1-0.2-0.3-0.3-0.5-0.3c-0.1,0-0.1,0-0.2,0c-0.1,0-0.2,0.1-0.3,0.1V1.7c0.6-0.2,1.4-0.4,2.2-0.6c0.1,0,0.1,0,0.1,0.1
			c0,0,0,0.1,0,0.2v7.9c0,0.4,0.1,0.6,0.2,0.7c0.1,0.1,0.5,0.2,0.8,0.3v0.2h-3.2C35.7,10.5,35.7,10.3,35.7,10.3z"/>
	</g>
	<g class="st0">
		<path class="st2" d="M41,2.5c0.8-0.8,1.9-1.2,3.1-1.2c1.2,0,2.3,0.5,3.1,1.2C48,3.3,48.5,4.5,48.5,6c0,1.2-0.3,2.1-0.9,3
			c-0.6,0.8-1.5,1.4-2.7,1.6c0.5,0.8,1.2,1.4,2,1.7c0.5,0.2,1,0.3,1.7,0.5V13H48c-0.7,0-1.4-0.1-1.9-0.2c-0.5-0.1-1.1-0.3-1.5-0.5
			c-0.5-0.3-0.9-0.5-1.3-1c-0.5-0.5-0.6-0.6-0.6-0.6l-0.2-0.1c-0.8-0.5-1.4-0.8-1.8-1.4c-0.8-0.8-1.2-1.9-1.2-3.2
			C39.6,4.4,40.1,3.4,41,2.5z M42,9.1c0.5,0.6,1.3,1,2.1,1s1.5-0.4,2.1-1c0.5-0.6,0.8-1.7,0.8-3.2c0-1.5-0.3-2.5-0.8-3.2
			s-1.3-1-2.1-1c-0.8,0-1.5,0.4-2.1,1S41.2,4.5,41.2,6S41.4,8.5,42,9.1z"/>
		<path class="st2" d="M51.2,4.3v4.2c0,0.3,0.1,0.5,0.1,0.7c0.2,0.4,0.5,0.5,0.9,0.5c0.3,0,0.6-0.1,0.9-0.3c0.2-0.1,0.3-0.3,0.5-0.5
			V5.3c0-0.4-0.1-0.5-0.2-0.6c-0.1-0.1-0.5-0.2-0.8-0.2V4.3h2.2v4.7c0,0.3,0.1,0.5,0.2,0.6c0.1,0.1,0.4,0.2,0.6,0.1v0.2
			C55.2,9.9,55,9.9,55,9.9c-0.1,0.1-0.3,0.1-0.6,0.2c-0.1,0.1-0.4,0.1-0.8,0.3h-0.1v-0.1V9.2c-0.3,0.4-0.6,0.6-0.8,0.8
			c-0.4,0.3-0.8,0.5-1.2,0.5s-0.7-0.1-1.1-0.5c-0.4-0.3-0.5-0.7-0.5-1.4V5.2c0-0.4-0.1-0.6-0.3-0.7c-0.1-0.1-0.3-0.1-0.6-0.2V4.2H51
			v0.1H51.2z"/>
		<path class="st2" d="M57.3,7.6c0.5-0.3,1.2-0.6,2.4-1.1V6c0-0.5-0.1-0.8-0.1-1c-0.1-0.3-0.5-0.5-1-0.5c-0.3,0-0.5,0.1-0.6,0.2
			c-0.2,0.1-0.3,0.3-0.3,0.5c0,0.1,0,0.1,0.1,0.3c0,0.1,0.1,0.2,0.1,0.3c0,0.3-0.1,0.5-0.3,0.5c-0.1,0.1-0.2,0.1-0.4,0.1
			c-0.2,0-0.4-0.1-0.5-0.2c-0.1-0.1-0.2-0.3-0.2-0.5c0-0.3,0.2-0.6,0.6-1c0.4-0.4,1-0.5,1.7-0.5c0.8,0,1.4,0.3,1.7,0.8
			C60.9,5.3,61,5.8,61,6.4V9c0,0.3,0,0.5,0.1,0.5c0.1,0.2,0.2,0.3,0.4,0.3c0.1,0,0.2,0,0.3-0.1c0.1-0.1,0.2-0.1,0.4-0.3v0.4
			c-0.1,0.2-0.3,0.3-0.5,0.5c-0.3,0.2-0.5,0.3-0.8,0.3c-0.3,0-0.5-0.1-0.6-0.3c-0.1-0.2-0.2-0.5-0.3-0.7c-0.4,0.3-0.6,0.5-0.8,0.6
			c-0.5,0.3-0.8,0.4-1.2,0.4c-0.4,0-0.7-0.1-1-0.5c-0.3-0.3-0.5-0.6-0.5-1C56.3,8.5,56.7,8,57.3,7.6z M59.7,6.8
			c-0.5,0.2-0.9,0.4-1.3,0.5c-0.6,0.5-1,0.8-1,1.4c0,0.5,0.1,0.7,0.5,0.9c0.2,0.1,0.4,0.2,0.6,0.2s0.5-0.1,0.8-0.3
			c0.3-0.2,0.5-0.4,0.5-0.6L59.7,6.8L59.7,6.8z"/>
		<path class="st2" d="M62.1,10.3c0.5-0.1,0.6-0.1,0.8-0.3c0.1-0.1,0.3-0.4,0.3-0.7V2.8c0-0.3,0-0.5-0.1-0.6C63,2,62.8,1.9,62.5,1.9
			c-0.1,0-0.1,0-0.2,0c-0.1,0-0.2,0.1-0.3,0.1V1.7c0.6-0.2,1.4-0.4,2.2-0.6c0.1,0,0.1,0,0.1,0.1c0,0,0,0.1,0,0.2v7.9
			c0,0.4,0.1,0.6,0.2,0.7c0.1,0.1,0.5,0.2,0.8,0.3v0.2h-3.2L62.1,10.3L62.1,10.3z"/>
		<path class="st2" d="M66,10.3c0.5-0.1,0.8-0.1,0.9-0.3C67,9.9,67,9.6,67,9V5.9c0-0.3,0-0.5-0.1-0.6C66.9,5.1,66.8,5,66.5,5
			c-0.1,0-0.1,0-0.1,0S66.2,5.1,66,5.2V5l0.3-0.1c0.8-0.3,1.4-0.5,1.6-0.5c0.1-0.1,0.2-0.1,0.3-0.1c0,0.1,0,0.1,0,0.1v4.8
			c0,0.5,0.1,0.8,0.2,1c0.1,0.1,0.5,0.2,0.8,0.3v0.2H66V10.3L66,10.3z M67,1.4c0.1-0.1,0.3-0.2,0.5-0.2c0.2,0,0.4,0.1,0.5,0.2
			S68,1.6,68,1.8s-0.1,0.4-0.2,0.5s-0.3,0.2-0.5,0.2c-0.2,0-0.4-0.1-0.5-0.2c-0.1-0.1-0.1-0.2-0.1-0.4C66.9,1.7,66.9,1.6,67,1.4z"/>
		<path class="st2" d="M72.8,4.3v0.5h-1.4v3.8c0,0.4,0,0.6,0.1,0.8c0.1,0.3,0.3,0.5,0.6,0.5c0.2,0,0.3-0.1,0.5-0.1
			c0.1-0.1,0.3-0.2,0.5-0.4l0.2,0.1l-0.1,0.2c-0.3,0.3-0.5,0.5-0.7,0.6c-0.3,0.1-0.5,0.2-0.7,0.2c-0.5,0-0.9-0.3-1.1-0.7
			c-0.1-0.3-0.2-0.6-0.2-1v-4h-0.7c0,0-0.1,0-0.1-0.1V4.6c0-0.1,0-0.1,0-0.1s0.1-0.1,0.2-0.2c0.3-0.3,0.5-0.5,0.6-0.6
			c0.1-0.2,0.5-0.5,1-1.3c0.1,0,0.1,0,0.1,0v0.1v1.6h1.4L72.8,4.3L72.8,4.3z"/>
		<path class="st2" d="M73.4,4.3h2.8v0.2c-0.3,0-0.4,0-0.5,0.1c-0.2,0.1-0.3,0.2-0.3,0.4c0,0.1,0,0.1,0.1,0.2c0,0.1,0.1,0.2,0.1,0.3
			l1.5,3.3l1.3-3.3c0-0.1,0.1-0.1,0.1-0.3c0-0.1,0.1-0.3,0.1-0.3c0-0.1-0.1-0.2-0.1-0.3c-0.1-0.1-0.2-0.1-0.3-0.1H78V4.3h1.8v0.2
			c-0.2,0-0.3,0.1-0.5,0.2c-0.1,0.1-0.2,0.3-0.3,0.5l-2.1,5.6c-0.4,1-0.7,1.6-1,2.1c-0.4,0.5-0.7,0.6-1.3,0.6
			c-0.3,0-0.5-0.1-0.7-0.2c-0.3-0.1-0.3-0.3-0.3-0.6c0-0.2,0.1-0.3,0.2-0.5c0.1-0.1,0.3-0.2,0.5-0.2c0.1,0,0.3,0.1,0.5,0.1
			c0.3,0.1,0.4,0.1,0.5,0.1c0.3,0,0.5-0.3,0.8-0.9c0.3-0.6,0.5-1,0.5-1.2c0-0.1,0-0.1,0-0.1s0-0.1-0.1-0.2l-2.1-4.4
			c-0.1-0.3-0.3-0.5-0.5-0.6c-0.2-0.1-0.3-0.2-0.5-0.2V4.3H73.4z"/>
	</g>
	<g class="st0">
		<path class="st2" d="M18.5,16.5L18.5,16.5L18.5,16.5c0,0.1,0,0.1,0,0.2c0,0.1,0,0-0.1,0h-1.5c-0.1,0-0.1,0-0.1-0.1
			c-0.1,0-0.1-0.1-0.1-0.1v-2.7c0-0.1,0-0.1,0.1-0.1c0.1,0,0.1-0.1,0.1-0.1h1.4c0,0,0,0,0.1,0c0,0,0,0,0,0.1c0,0.1,0,0.1,0,0.1v0.1
			V14v0.1l0,0c0,0,0,0-0.1,0h-1.2v1h1c0,0,0,0,0.1,0l0,0c0,0,0,0,0,0.1v0.1v0.1v0.1l0,0c0,0,0,0-0.1,0h-1v1.1h1.2
			C18.3,16.5,18.3,16.5,18.5,16.5C18.5,16.5,18.4,16.5,18.5,16.5L18.5,16.5L18.5,16.5z"/>
		<path class="st2" d="M21,16.7L21,16.7L21,16.7C20.9,16.8,20.9,16.8,21,16.7c-0.2,0.1-0.2,0.1-0.2,0.1c-0.1,0-0.1,0-0.1,0h-0.1
			c0,0,0,0-0.1,0c0,0,0,0,0-0.1v-1.3c0-0.1,0-0.3,0-0.3c0-0.1-0.1-0.1-0.1-0.2c-0.1-0.1-0.1-0.1-0.1-0.1c-0.1,0-0.1-0.1-0.2-0.1
			s-0.2,0.1-0.3,0.1c-0.1,0-0.2,0.2-0.3,0.3v1.5c0,0,0,0,0,0.1c0,0,0,0-0.1,0c-0.1,0-0.1,0-0.1,0h-0.1c-0.1,0-0.1,0-0.1,0h-0.2
			c0,0,0,0-0.1,0c0,0,0,0,0-0.1v-2.1c0,0,0,0,0-0.1s0,0,0,0h0.1h0.1c0.1,0,0.1,0,0.1,0h0.1l0,0c0,0,0,0,0,0.1v0.3
			c0.1-0.1,0.3-0.3,0.4-0.3c0.1-0.1,0.3-0.1,0.4-0.1c0.1,0,0.3,0,0.4,0.1s0.2,0.1,0.3,0.2c0.1,0.1,0.1,0.2,0.1,0.3
			c0,0.1,0.1,0.3,0.1,0.4L21,16.7L21,16.7L21,16.7z"/>
		<path class="st2" d="M23.3,14.5L23.3,14.5L23.3,14.5C23.3,14.6,23.3,14.6,23.3,14.5C23.3,14.6,23.3,14.6,23.3,14.5l-0.7,2.1v0.1
			c0,0,0,0-0.1,0c-0.1,0-0.1,0-0.1,0h-0.1c-0.1,0-0.1,0-0.1,0c-0.1,0-0.1,0-0.1,0H22c0,0,0,0,0-0.1l-0.7-2l0,0c0,0,0,0,0-0.1
			s0,0,0,0s0,0,0-0.1c0-0.1,0,0,0.1,0c0.1,0,0.1,0,0.1,0h0.1c0.1,0,0.1,0,0.1,0h0.1c0,0,0,0,0.1,0c0.1,0,0,0,0,0.1l0.6,1.7l0,0l0,0
			l0.6-1.7c0,0,0,0,0-0.1C23.1,14.4,23.1,14.4,23.3,14.5L23.3,14.5C23.2,14.4,23.2,14.4,23.3,14.5C23.4,14.4,23.4,14.4,23.3,14.5
			C23.4,14.4,23.3,14.4,23.3,14.5C23.3,14.4,23.3,14.4,23.3,14.5C23.3,14.4,23.3,14.5,23.3,14.5z"/>
		<path class="st2" d="M24.2,13.8c0,0.1,0,0.2-0.1,0.2c-0.1,0.1-0.1,0.1-0.2,0.1s-0.2,0-0.2-0.1c-0.1-0.1-0.1-0.1-0.1-0.2
			s0-0.2,0.1-0.2c0.1-0.1,0.1-0.1,0.2-0.1s0.2,0,0.2,0.1C24.2,13.6,24.2,13.7,24.2,13.8z M24.1,16.7L24.1,16.7L24.1,16.7
			C24,16.8,24,16.8,24.1,16.7l-0.2,0.1c-0.1,0-0.1,0-0.1,0h-0.1c0,0,0,0-0.1,0c0,0,0,0,0-0.1v-2.1c0,0,0,0,0-0.1c0,0,0,0,0.1,0h0.1
			h0.1c0.1,0,0.1,0,0.1,0h0.1c0,0,0,0,0.1,0c0,0,0,0,0,0.1C24.1,14.5,24.1,16.7,24.1,16.7z"/>
		<path class="st2" d="M26.1,14.6C26.1,14.7,26.1,14.7,26.1,14.6L26.1,14.6c0,0.1,0,0.1,0,0.2c0,0.1,0,0,0,0s0,0-0.1,0h-0.1h-0.1
			h-0.1c-0.1,0-0.1,0-0.1,0l-0.1,0.1C25.5,15,25.5,15,25.5,15s-0.1,0.2-0.1,0.3v1.4c0,0,0,0,0,0.1c0,0,0,0-0.1,0c-0.1,0-0.1,0-0.1,0
			h-0.1H25h-0.1c0,0,0,0-0.1,0c0,0,0,0,0-0.1v-2.1c0,0,0,0,0-0.1c0-0.1,0,0,0,0h0.1H25c0.1,0,0.1,0,0.1,0h0.1l0,0c0,0,0,0,0,0.1v0.3
			c0.1-0.1,0.1-0.2,0.2-0.2v-0.1l0.1-0.1h0.1h0.1h0.1h0.1h0.1l0,0l0,0c0,0,0,0,0,0.1C26.1,14.6,26.1,14.6,26.1,14.6z"/>
		<path class="st2" d="M28.4,15.5c0,0.2,0,0.4-0.1,0.5c-0.1,0.1-0.1,0.3-0.2,0.4c-0.1,0.1-0.2,0.2-0.4,0.3c-0.1,0.1-0.3,0.1-0.5,0.1
			c-0.2,0-0.3,0-0.5-0.1c-0.2-0.1-0.3-0.1-0.3-0.3c-0.1-0.1-0.1-0.3-0.2-0.4c-0.2-0.1-0.2-0.3-0.2-0.5c0-0.2,0-0.3,0.1-0.5
			c0.1-0.1,0.1-0.3,0.2-0.4c0.1-0.1,0.2-0.2,0.4-0.3c0.2-0.1,0.3-0.1,0.5-0.1c0.2,0,0.3,0,0.5,0.1c0.2,0.1,0.3,0.1,0.3,0.3
			c0.1,0.1,0.2,0.3,0.2,0.4C28.3,15.2,28.4,15.4,28.4,15.5z M28.1,15.5c0-0.1,0-0.3-0.1-0.3c0-0.1-0.1-0.2-0.1-0.3
			c-0.1-0.1-0.1-0.1-0.2-0.2c-0.1-0.1-0.2-0.1-0.3-0.1c-0.1,0-0.3,0-0.3,0.1C27.1,14.9,27,14.9,27,15c-0.1,0.1-0.1,0.2-0.1,0.3
			c0,0.1-0.1,0.3-0.1,0.4s0,0.3,0.1,0.3c0,0.1,0.1,0.2,0.1,0.3c0.1,0.1,0.1,0.1,0.2,0.2c0.1,0.1,0.2,0.1,0.3,0.1s0.3,0,0.3-0.1
			c0-0.1,0.2-0.1,0.2-0.2C28,16.1,28,16,28,15.9C28.1,15.8,28.1,15.7,28.1,15.5z"/>
		<path class="st2" d="M30.8,16.7L30.8,16.7L30.8,16.7C30.7,16.8,30.7,16.8,30.8,16.7l-0.2,0.1h-0.1h-0.1c0,0,0,0-0.1,0
			c0,0,0,0,0-0.1v-1.3c0-0.1,0-0.3,0-0.3c0-0.1-0.1-0.1-0.1-0.2c-0.1-0.1-0.1-0.1-0.1-0.1s-0.1-0.1-0.2-0.1c-0.1,0-0.2,0.1-0.3,0.1
			c-0.1,0-0.2,0.2-0.3,0.3v1.5c0,0,0,0,0,0.1c0,0,0,0-0.1,0c-0.1,0-0.1,0-0.1,0h-0.1c-0.1,0-0.1,0-0.1,0H29c0,0,0,0-0.1,0
			c0,0,0,0,0-0.1v-2.1c0,0,0,0,0-0.1s0,0,0,0H29l0,0c0.1,0,0.1,0,0.1,0h0.1l0,0c0,0,0,0,0,0.1v0.3c0.1-0.1,0.3-0.3,0.4-0.3
			c0.1-0.1,0.3-0.1,0.4-0.1s0.3,0,0.4,0.1c0.1,0.1,0.2,0.1,0.3,0.2c0.1,0.1,0.1,0.2,0.1,0.3c0,0.1,0.1,0.3,0.1,0.4L30.8,16.7
			L30.8,16.7L30.8,16.7z"/>
		<path class="st2" d="M34.7,16.7L34.7,16.7L34.7,16.7C34.6,16.8,34.6,16.8,34.7,16.7l-0.2,0.1c-0.1,0-0.1,0-0.1,0
			c-0.1,0-0.1,0-0.1,0s0,0-0.1,0c-0.1,0,0,0,0-0.1v-1.3c0-0.1,0-0.2,0-0.3c0-0.1-0.1-0.1-0.1-0.2C34,14.9,34,14.9,34,14.9
			c-0.1,0-0.1-0.1-0.2-0.1s-0.2,0.1-0.3,0.1c-0.1,0.1-0.2,0.2-0.3,0.3v1.5c0,0,0,0,0,0.1s0,0-0.1,0c-0.1,0-0.1,0-0.1,0H33h-0.1
			c-0.1,0-0.1,0-0.1,0s0,0-0.1,0c0,0,0,0,0-0.1v-1.3c0-0.1,0-0.2,0-0.3c0-0.1-0.1-0.1-0.1-0.2c-0.1-0.1-0.1-0.1-0.1-0.1
			c-0.1,0-0.1-0.1-0.2-0.1s-0.2,0.1-0.3,0.1C32,15,32,15.1,31.9,15.2v1.5c0,0,0,0,0,0.1c0,0,0,0-0.1,0c-0.1,0-0.1,0-0.1,0h-0.1
			c-0.1,0-0.1,0-0.1,0h-0.1c0,0,0,0-0.1,0c0,0,0,0,0-0.1v-2.1c0,0,0,0,0-0.1s0,0,0,0h0.1h0.1c0.1,0,0.1,0,0.1,0h0.1l0,0
			c0,0,0,0,0,0.1v0.3c0.1-0.1,0.3-0.3,0.4-0.3c0.1-0.1,0.3-0.1,0.4-0.1s0.2,0,0.3,0.1c0.1,0,0.1,0.1,0.2,0.1
			c0.1,0.1,0.1,0.1,0.1,0.1S33,14.9,33,15c0.1-0.1,0.1-0.1,0.2-0.2c0.1-0.1,0.1-0.1,0.2-0.1c0.1,0,0.1-0.1,0.2-0.1
			c0.1,0,0.1,0,0.2,0s0.3,0,0.4,0.1c0.1,0.1,0.2,0.1,0.3,0.2s0.1,0.2,0.1,0.3c0,0.1,0.1,0.3,0.1,0.4L34.7,16.7L34.7,16.7z"/>
		<path class="st2" d="M37.2,15.5C37.2,15.6,37.2,15.6,37.2,15.5C37,15.6,37,15.7,37,15.7h-1.4c0,0.1,0,0.3,0.1,0.3
			c0,0.1,0.1,0.2,0.1,0.3c0.1,0.1,0.1,0.1,0.3,0.2c0.2,0.1,0.2,0.1,0.3,0.1s0.2,0,0.3,0c0.1,0,0.1-0.1,0.2-0.1
			c0.1,0,0.1-0.1,0.1-0.1H37l0,0l0,0c0,0,0,0,0,0.1c0,0.1,0,0.1,0,0.1v0.1c0,0,0,0,0,0.1c0,0.1,0,0,0,0.1s0,0,0,0s-0.1,0-0.1,0.1
			c0,0.1-0.1,0.1-0.2,0.1s-0.1,0.1-0.3,0.1c-0.1,0-0.2,0-0.3,0c-0.2,0-0.3,0-0.5-0.1c-0.1-0.1-0.3-0.1-0.3-0.3
			c0-0.2-0.2-0.3-0.2-0.4c-0.1-0.1-0.1-0.3-0.1-0.5c0-0.2,0-0.4,0.1-0.5c0.1-0.1,0.1-0.3,0.2-0.4c0.1-0.1,0.2-0.2,0.3-0.3
			c0.1-0.1,0.3-0.1,0.5-0.1s0.3,0,0.5,0.1c0.1,0.1,0.3,0.1,0.3,0.3c0,0.2,0.1,0.2,0.2,0.3C37.1,15.3,37.1,15.4,37.2,15.5L37.2,15.5
			L37.2,15.5z M36.8,15.4c0-0.2-0.1-0.4-0.1-0.5c-0.1-0.1-0.3-0.2-0.5-0.2c-0.1,0-0.2,0-0.3,0.1c-0.1,0.1-0.1,0.1-0.2,0.1
			c-0.1,0.1-0.1,0.2-0.1,0.3c0,0.1-0.1,0.2-0.1,0.3C35.7,15.4,36.8,15.4,36.8,15.4z"/>
		<path class="st2" d="M39.6,16.7L39.6,16.7L39.6,16.7C39.5,16.8,39.5,16.8,39.6,16.7l-0.2,0.1c-0.1,0-0.1,0-0.1,0h-0.1
			c0,0,0,0-0.1,0c0,0,0,0,0-0.1v-1.3c0-0.1,0-0.3,0-0.3c0-0.1-0.1-0.1-0.1-0.2C39,14.9,39,14.9,39,14.9c-0.1,0-0.1-0.1-0.2-0.1
			s-0.2,0.1-0.3,0.1c-0.1,0-0.2,0.2-0.3,0.3v1.5c0,0,0,0,0,0.1c0,0,0,0-0.1,0c-0.1,0-0.1,0-0.1,0H38c-0.1,0-0.1,0-0.1,0h-0.1
			c0,0,0,0-0.1,0c0,0,0,0,0-0.1v-2.1c0,0,0,0,0-0.1s0,0,0,0h0.1h0.1c0.1,0,0.1,0,0.1,0h0.1l0,0c0,0,0,0,0,0.1v0.3
			c0.1-0.1,0.3-0.3,0.4-0.3c0.1-0.1,0.3-0.1,0.4-0.1s0.3,0,0.4,0.1s0.2,0.1,0.3,0.2c0.1,0.1,0.1,0.2,0.1,0.3c0,0.1,0.1,0.3,0.1,0.4
			L39.6,16.7L39.6,16.7L39.6,16.7z"/>
		<path class="st2" d="M41.3,16.5C41.3,16.6,41.3,16.6,41.3,16.5v0.2c0,0-0.1,0-0.1,0.1h-0.1h-0.1H41c-0.1,0-0.2,0-0.3-0.1
			c-0.1,0-0.1-0.1-0.2-0.1c-0.1-0.1-0.1-0.1-0.1-0.3c0-0.1-0.1-0.2-0.1-0.3v-1.3h-0.3c0,0-0.1,0-0.1-0.1c0-0.1,0-0.1,0-0.1v-0.1
			v-0.1l0,0c0,0,0,0,0.1,0h0.3V14c0,0,0,0,0-0.1c0,0,0,0,0.1,0h0.1h0.1c0.1,0,0.1,0,0.1,0h0.1c0,0,0,0,0.1,0c0,0,0,0,0,0.1v0.5h0.5
			c0,0,0,0,0.1,0c0.1,0,0,0,0,0s0,0,0,0.1v0.1c0,0.1,0,0.1,0,0.1l-0.1,0.1h-0.5V16c0,0.1,0,0.3,0.1,0.3c0.1,0.1,0.1,0.1,0.3,0.1
			c0.1,0,0.1,0,0.1,0h0.1h0.1c0,0,0,0,0.1,0l0,0l0,0C41.4,16.3,41.4,16.3,41.3,16.5L41.3,16.5z"/>
		<path class="st2" d="M43.4,16.7L43.4,16.7C43.3,16.7,43.3,16.7,43.4,16.7c-0.1,0.1-0.1,0.1-0.2,0.1c-0.1,0-0.1,0-0.1,0H43
			c0,0,0,0,0-0.1v-0.3c-0.1,0.1-0.2,0.2-0.3,0.3s-0.2,0.1-0.3,0.1s-0.3,0-0.3-0.1c-0.1,0-0.2-0.1-0.3-0.1c-0.1-0.1-0.1-0.1-0.1-0.2
			c0-0.1-0.1-0.2-0.1-0.3c0-0.1,0-0.3,0.1-0.3c0.1-0.1,0.1-0.2,0.2-0.3c0.1-0.1,0.2-0.1,0.4-0.1c0.1,0,0.3-0.1,0.5-0.1h0.3v-0.2
			c0-0.1,0-0.2,0-0.3c0-0.1-0.1-0.1-0.1-0.2C43,14.7,43,14.7,43,14.7c-0.2-0.1-0.2-0.1-0.4-0.1c-0.2,0-0.2,0-0.3,0.1
			c-0.1,0-0.1,0.1-0.2,0.1c-0.1,0-0.1,0.1-0.1,0.1C42,14.9,42,15,42,15s0,0-0.1,0l0,0c0,0,0,0,0-0.1v-0.1c0-0.1,0-0.1,0-0.1
			s0-0.1,0.1-0.1s0.1-0.1,0.1-0.1s0.1-0.1,0.2-0.1s0.1-0.1,0.3-0.1c0.1,0,0.2,0,0.3,0c0.2,0,0.3,0,0.4,0.1c0.1,0.1,0.2,0.1,0.3,0.2
			s0.1,0.1,0.1,0.3c0,0.1,0.1,0.3,0.1,0.4v1.4H43.4z M43,15.7h-0.4c-0.1,0-0.2,0-0.3,0c-0.1,0-0.1,0.1-0.2,0.1s-0.1,0.1-0.1,0.1
			c0,0.1-0.1,0.1-0.1,0.2c0,0.1,0.1,0.2,0.1,0.3c0.1,0.1,0.2,0.1,0.3,0.1c0.1,0,0.2,0,0.3-0.1c0.1-0.1,0.2-0.1,0.3-0.3
			C43,16.2,43,15.7,43,15.7z"/>
		<path class="st2" d="M44.6,16.7L44.6,16.7C44.5,16.7,44.5,16.7,44.6,16.7C44.5,16.8,44.5,16.8,44.6,16.7l-0.2,0.1
			c-0.1,0-0.1,0-0.1,0h-0.1c0,0,0,0-0.1,0c0,0,0,0,0-0.1v-3.2c0,0,0,0,0-0.1c0,0,0,0,0.1,0h0.1h0.1c0.1,0,0.1,0,0.1,0h0.1
			c0,0,0,0,0.1,0c0,0,0,0,0,0.1C44.6,13.5,44.6,16.7,44.6,16.7z"/>
		<path class="st2" d="M48.5,16.7L48.5,16.7L48.5,16.7C48.4,16.8,48.4,16.8,48.5,16.7l-0.2,0.1c-0.1,0-0.1,0-0.1,0
			c-0.1,0-0.1,0-0.1,0s0,0-0.1,0s0,0,0-0.1L47.7,16c-0.1-0.1-0.1-0.2-0.1-0.3c-0.1-0.1-0.1-0.1-0.1-0.2c-0.1-0.1-0.1-0.1-0.2-0.1
			c-0.1,0-0.1-0.1-0.3-0.1h-0.3v1.4c0,0,0,0,0,0.1s0,0-0.1,0h-0.1h-0.1c-0.1,0-0.1,0-0.1,0h-0.1c0,0,0,0-0.1,0c0,0,0,0,0-0.1v-2.8
			c0-0.1,0-0.1,0.1-0.1c0.1,0,0.1-0.1,0.1-0.1h0.6c0.1,0,0.1,0,0.2,0c0.1,0,0.1,0,0.1,0c0.1,0,0.3,0.1,0.3,0.1
			c0.1,0.1,0.2,0.1,0.3,0.2c0.1,0.1,0.1,0.1,0.1,0.3s0.1,0.2,0.1,0.3c0,0.1,0,0.2-0.1,0.3c-0.1,0.1-0.1,0.2-0.1,0.3
			c-0.1,0.1-0.1,0.1-0.2,0.2c-0.1,0.1-0.2,0.1-0.3,0.1c0.1,0,0.1,0.1,0.1,0.1c0.1,0.1,0.1,0.1,0.1,0.1c0.1,0.1,0.1,0.1,0.1,0.2
			c0.1,0.1,0.1,0.1,0.1,0.2l0.3,0.6C48.5,16.5,48.5,16.6,48.5,16.7C48.5,16.6,48.5,16.7,48.5,16.7z M47.8,14.4c0-0.1,0-0.3-0.1-0.3
			s-0.1-0.1-0.3-0.2c-0.1,0-0.1,0-0.1,0s-0.1,0-0.2,0h-0.4v1h0.5c0.1,0,0.2,0,0.3-0.1c0.1-0.1,0.1-0.1,0.2-0.1
			c0.1-0.1,0.1-0.1,0.1-0.2C47.8,14.6,47.8,14.6,47.8,14.4z"/>
		<path class="st2" d="M50.7,15.5C50.7,15.6,50.7,15.6,50.7,15.5c-0.2,0.1-0.2,0.2-0.2,0.2h-1.4c0,0.1,0,0.3,0.1,0.3
			c0,0.1,0.1,0.2,0.1,0.3c0.1,0.1,0.1,0.1,0.3,0.2c0.2,0.1,0.2,0.1,0.3,0.1c0.1,0,0.2,0,0.3,0s0.1-0.1,0.2-0.1
			c0.1,0,0.1-0.1,0.1-0.1h0.1l0,0l0,0c0,0,0,0,0,0.1c0,0.1,0,0.1,0,0.1v0.1c0,0,0,0,0,0.1c0,0.1,0,0,0,0.1s0,0,0,0s-0.1,0-0.1,0.1
			c0,0.1-0.1,0.1-0.2,0.1s-0.1,0.1-0.3,0.1c-0.1,0-0.2,0-0.3,0c-0.2,0-0.3,0-0.5-0.1c-0.1-0.1-0.3-0.1-0.3-0.3
			c0-0.2-0.2-0.3-0.2-0.4c-0.1-0.1-0.1-0.3-0.1-0.5c0-0.2,0-0.4,0.1-0.5c0.1-0.1,0.1-0.3,0.2-0.4c0.1-0.1,0.2-0.2,0.3-0.3
			c0.1-0.1,0.3-0.1,0.5-0.1c0.2,0,0.3,0,0.5,0.1c0.1,0.1,0.3,0.1,0.3,0.3c0,0.2,0.1,0.2,0.2,0.3C50.6,15.3,50.6,15.4,50.7,15.5
			L50.7,15.5L50.7,15.5z M50.3,15.4c0-0.2-0.1-0.4-0.1-0.5c-0.1-0.1-0.3-0.2-0.5-0.2c-0.1,0-0.2,0-0.3,0.1c-0.1,0.1-0.1,0.1-0.2,0.1
			c-0.1,0-0.1,0.1-0.1,0.2c0,0.1-0.1,0.2-0.1,0.3H50.3L50.3,15.4z"/>
		<path class="st2" d="M52.6,16.1c0,0.1,0,0.2-0.1,0.3c0,0.1-0.1,0.2-0.1,0.3c0,0.1-0.2,0.1-0.3,0.1s-0.3,0.1-0.4,0.1
			c-0.1,0-0.1,0-0.3,0s-0.1,0-0.2-0.1c-0.1-0.1-0.1-0.1-0.1-0.1l-0.1-0.1c0,0,0-0.1-0.1-0.1c-0.1,0,0-0.1,0-0.1v-0.1v-0.1l0,0l0,0
			c0,0,0.1,0,0.1,0.1c0.1,0,0.1,0.1,0.1,0.1s0.1,0.1,0.2,0.1c0.1,0,0.1,0.1,0.3,0.1c0.1,0,0.1,0,0.2,0c0.1,0,0.1-0.1,0.1-0.1
			l0.1-0.1c0.1-0.1,0.1-0.1,0.1-0.1c0-0.1,0-0.1-0.1-0.1C52,16.1,52,16.1,52,16.1C51.9,16,51.9,16,51.8,16s-0.1-0.1-0.2-0.1
			s-0.1-0.1-0.2-0.1c-0.1,0-0.1-0.1-0.2-0.1s-0.1-0.1-0.1-0.2c-0.1-0.1-0.1-0.1-0.1-0.3c0-0.1,0-0.2,0.1-0.3
			c0.1-0.1,0.1-0.1,0.1-0.2c0.1-0.1,0.1-0.1,0.3-0.1c0.1,0,0.2-0.1,0.4-0.1c0.1,0,0.1,0,0.2,0c0.1,0,0.1,0,0.2,0.1
			c0.1,0.1,0.1,0,0.1,0.1c0.1,0,0.1,0.1,0.1,0.1s0,0,0.1,0.1c0,0,0,0,0,0.1s0,0,0,0.1c0,0.1,0,0.1,0,0.1v0.1v0.1l0,0l0,0h-0.1
			l-0.1-0.1l-0.1-0.1c0,0-0.1,0-0.2,0s-0.1,0-0.2,0c-0.1,0-0.1,0.1-0.1,0.1c-0.1,0-0.1,0.1-0.1,0.1v0.1c0,0,0,0.1,0.1,0.2
			s0.1,0.1,0.1,0.1s0.1,0.1,0.2,0.1s0.1,0.1,0.2,0.1c0.1,0,0.1,0.1,0.2,0.1C52.5,16.2,52.5,16.2,52.6,16.1
			C52.7,16.2,52.7,16.1,52.6,16.1C52.7,16.2,52.6,16,52.6,16.1z"/>
		<path class="st2" d="M55.1,15.5c0,0.2,0,0.4-0.1,0.5c-0.1,0.1-0.1,0.3-0.2,0.4c-0.1,0.1-0.2,0.2-0.3,0.3c-0.1,0.1-0.3,0.1-0.5,0.1
			c-0.1,0-0.1,0-0.2,0s-0.1-0.1-0.2-0.1c-0.1,0-0.1-0.1-0.2-0.1s-0.1-0.1-0.2-0.1v1.1c0,0,0,0,0,0.1c0,0,0,0-0.1,0l0,0h-0.1
			c-0.1,0-0.1,0-0.1,0h-0.1c0,0,0,0-0.1,0c0,0,0,0,0-0.1v-3c0,0,0,0,0-0.1c0-0.1,0,0,0,0h0.1h0.1c0.1,0,0.1,0,0.1,0h0.1l0,0
			c0,0,0,0,0,0.1v0.3c0.1-0.1,0.1-0.1,0.2-0.2s0.1-0.1,0.2-0.1c0.1,0,0.1-0.1,0.2-0.1s0.1,0,0.2,0c0.2,0,0.3,0,0.5,0.1
			c0.2,0.1,0.2,0.1,0.3,0.3c0.1,0.2,0.1,0.3,0.1,0.4C55.1,15.3,55.1,15.4,55.1,15.5z M54.7,15.6c0-0.1,0-0.3,0-0.3
			c0-0.1-0.1-0.2-0.1-0.3c-0.1-0.1-0.1-0.1-0.2-0.2c-0.1-0.1-0.2-0.1-0.3-0.1s-0.1,0-0.1,0L54,14.9c0,0-0.2,0-0.3,0.1
			c-0.1,0.1-0.1,0.1-0.2,0.2V16c0.1,0.1,0.2,0.3,0.3,0.3c0.1,0.1,0.2,0.1,0.3,0.1c0.1,0,0.2,0,0.3-0.1c0.1-0.1,0.1-0.1,0.2-0.2
			c0.1-0.1,0.1-0.2,0.1-0.3C54.7,15.8,54.7,15.7,54.7,15.6z"/>
		<path class="st2" d="M57.8,15.5c0,0.2,0,0.4-0.1,0.5c-0.1,0.1-0.1,0.3-0.2,0.4c-0.1,0.1-0.2,0.2-0.4,0.3c-0.2,0.1-0.3,0.1-0.5,0.1
			c-0.2,0-0.3,0-0.5-0.1c-0.2-0.1-0.3-0.1-0.3-0.3c-0.1-0.1-0.1-0.3-0.2-0.4c-0.1-0.1-0.1-0.3-0.1-0.5c0-0.2,0-0.3,0.1-0.5
			c0.1-0.1,0.1-0.3,0.2-0.4c0.1-0.1,0.2-0.2,0.4-0.3c0.2-0.1,0.3-0.1,0.5-0.1s0.3,0,0.5,0.1c0.2,0.1,0.3,0.1,0.3,0.3
			c0.1,0.1,0.2,0.3,0.2,0.4C57.7,15.3,57.8,15.4,57.8,15.5z M57.3,15.5c0-0.1,0-0.3-0.1-0.3c0-0.1-0.1-0.2-0.1-0.3s-0.1-0.1-0.2-0.2
			c-0.1-0.1-0.2-0.1-0.3-0.1c-0.1,0-0.3,0-0.3,0.1c-0.1,0.1-0.2,0.1-0.2,0.2c-0.1,0.1-0.1,0.2-0.1,0.3c0,0.1-0.1,0.3-0.1,0.4
			s0,0.3,0.1,0.3c0,0.1,0.1,0.2,0.1,0.3c0.1,0.1,0.1,0.1,0.2,0.2c0.1,0.1,0.2,0.1,0.3,0.1c0.1,0,0.3,0,0.3-0.1
			c0-0.1,0.2-0.1,0.2-0.2c0.1-0.1,0.1-0.2,0.1-0.3C57.3,15.8,57.3,15.7,57.3,15.5z"/>
		<path class="st2" d="M60.1,16.7L60.1,16.7L60.1,16.7C60,16.8,60,16.8,60.1,16.7l-0.2,0.1h-0.1h-0.2c0,0,0,0-0.1,0c0,0,0,0,0-0.1
			v-1.3c0-0.1,0-0.3,0-0.3c0-0.1-0.1-0.1-0.1-0.2c-0.1-0.1-0.1-0.1-0.1-0.1s-0.1-0.1-0.2-0.1s-0.2,0.1-0.3,0.1
			c-0.1,0-0.2,0.2-0.3,0.3v1.5c0,0,0,0,0,0.1c0,0,0,0-0.1,0c-0.1,0-0.1,0-0.1,0h-0.1h-0.1h-0.1c0,0,0,0-0.1,0c0,0,0,0,0-0.1v-2.1
			c0,0,0,0,0-0.1s0,0,0,0h0.1h0.1c0.1,0,0.1,0,0.1,0h0.1l0,0c0,0,0,0,0,0.1v0.3c0.1-0.1,0.3-0.3,0.4-0.3c0.1-0.1,0.3-0.1,0.4-0.1
			s0.3,0,0.4,0.1s0.1,0,0.2,0c0.1,0.1,0.1,0.2,0.1,0.3c0,0.1,0.1,0.3,0.1,0.4v1.4L60.1,16.7L60.1,16.7z"/>
		<path class="st2" d="M62.1,16.1c0,0.1,0,0.2-0.1,0.3c-0.1,0.1-0.1,0.2-0.2,0.3c-0.1,0.1-0.2,0.1-0.3,0.1c-0.1,0-0.3,0.1-0.4,0.1
			c-0.1,0-0.1,0-0.3,0c-0.1,0-0.1,0-0.2-0.1c-0.1-0.1-0.1-0.1-0.1-0.1l-0.1-0.1c0,0,0-0.1-0.1-0.1c-0.1,0,0-0.1,0-0.1v-0.1v-0.1l0,0
			l0,0c0,0,0.1,0,0.1,0.1c0.1,0,0.1,0.1,0.1,0.1s0.1,0.1,0.2,0.1c0.1,0,0.1,0.1,0.3,0.1c0.1,0,0.1,0,0.2,0c0.1,0,0.1-0.1,0.1-0.1
			l0.1-0.1c0.1-0.1,0.1-0.1,0.1-0.1c0-0.1,0-0.1-0.1-0.1c-0.1-0.1-0.1-0.1-0.1-0.1C61.3,16,61.3,16,61.2,16c-0.1,0-0.1-0.1-0.2-0.1
			c-0.1,0-0.1-0.1-0.2-0.1c-0.1-0.1-0.1-0.1-0.2-0.1c-0.1-0.1-0.1-0.1-0.1-0.2c-0.1-0.1-0.1-0.1-0.1-0.3c0-0.1,0-0.2,0.1-0.3
			c0.1-0.1,0.1-0.1,0.1-0.2c0.1-0.1,0.1-0.1,0.3-0.1c0.1,0,0.2-0.1,0.4-0.1c0.1,0,0.1,0,0.2,0s0.1,0,0.2,0.1c0.1,0.1,0.1,0,0.1,0.1
			c0.1,0,0.1,0.1,0.1,0.1s0,0,0.1,0.1c0,0,0,0,0,0.1s0,0,0,0.1s0,0.1,0,0.1v0.1v0.1l0,0l0,0h-0.1l-0.1-0.1l-0.1-0.1c0,0-0.1,0-0.2,0
			c-0.1,0-0.1,0-0.2,0s-0.1,0.1-0.1,0.1c-0.1,0-0.1,0.1-0.1,0.1v0.1c0,0,0,0.1,0.1,0.2s0.1,0.1,0.1,0.1s0.1,0.1,0.2,0.1
			s0.1,0.1,0.2,0.1c0.1,0,0.1,0.1,0.2,0.1C61.9,16.2,61.9,16.2,62.1,16.1C62.1,16,62.2,16.1,62.1,16.1C62.2,16.2,62.1,16,62.1,16.1z
			"/>
		<path class="st2" d="M63.2,13.8c0,0.1,0,0.2-0.1,0.2c-0.1,0.1-0.1,0.1-0.2,0.1s-0.2,0-0.2-0.1c-0.1-0.1-0.1-0.1-0.1-0.2
			s0-0.2,0.1-0.2c0.1-0.1,0.1-0.1,0.2-0.1s0.2,0,0.2,0.1C63.1,13.6,63.2,13.7,63.2,13.8z M63.1,16.7L63.1,16.7
			C63.1,16.7,63,16.7,63.1,16.7C63,16.8,63,16.8,63.1,16.7l-0.2,0.1h-0.1h-0.1c0,0,0,0-0.1,0c0,0,0,0,0-0.1v-2.1c0,0,0,0,0-0.1
			c0,0,0,0,0.1,0h0.1h0.1H63h0.1c0,0,0,0,0.1,0c0,0,0,0,0,0.1L63.1,16.7L63.1,16.7z"/>
		<path class="st2" d="M65.8,15.5c0,0.2,0,0.4-0.1,0.5c-0.1,0.1-0.1,0.3-0.2,0.4c-0.1,0.1-0.2,0.2-0.3,0.3c-0.1,0.1-0.3,0.1-0.4,0.1
			c-0.1,0-0.1,0-0.2,0c-0.1,0-0.1-0.1-0.2-0.1s-0.1-0.1-0.2-0.1c-0.1-0.1-0.1-0.1-0.2-0.2v0.3c0,0,0,0,0,0.1c0,0,0,0-0.1,0
			c-0.1,0-0.1,0-0.1,0h-0.1c-0.1,0-0.1,0-0.1,0h-0.1l0,0c0,0,0,0,0-0.1v-3.2c0,0,0,0,0-0.1c0,0,0,0,0.1,0h0.1H64c0.1,0,0.1,0,0.1,0
			h0.1c0,0,0,0,0.1,0c0,0,0,0,0,0.1v1.3c0.1-0.1,0.1-0.1,0.2-0.2c0.1-0.1,0.1-0.1,0.2-0.1c0.1,0,0.1-0.1,0.2-0.1c0.1,0,0.1,0,0.2,0
			c0.2,0,0.3,0.1,0.5,0.1c0.1,0.1,0.2,0.1,0.3,0.3c0.1,0.2,0.1,0.3,0.1,0.4C65.8,15.3,65.8,15.4,65.8,15.5z M65.3,15.6
			c0-0.1,0-0.3,0-0.3c0-0.1-0.1-0.2-0.1-0.3c-0.1-0.1-0.1-0.1-0.2-0.2c-0.1-0.1-0.2-0.1-0.3-0.1s-0.1,0-0.1,0l-0.1,0.1
			c0,0-0.1,0.1-0.2,0.1c-0.1,0.1-0.1,0.1-0.2,0.2V16c0.1,0.1,0.2,0.3,0.3,0.3c0.1,0.1,0.2,0.1,0.3,0.1s0.2,0,0.3-0.1
			c0.1-0.1,0.1-0.1,0.2-0.2c0.1-0.1,0.1-0.2,0.1-0.3C65.4,15.9,65.3,15.7,65.3,15.6z"/>
		<path class="st2" d="M66.8,13.8c0,0.1,0,0.2-0.1,0.2c-0.1,0.1-0.1,0.1-0.2,0.1c-0.1,0-0.2,0-0.2-0.1c-0.1-0.1-0.1-0.1-0.1-0.2
			s0-0.2,0.1-0.2c0.1-0.1,0.1-0.1,0.2-0.1c0.1,0,0.2,0,0.2,0.1C66.8,13.6,66.8,13.7,66.8,13.8z M66.7,16.7L66.7,16.7L66.7,16.7
			C66.6,16.8,66.6,16.8,66.7,16.7l-0.2,0.1h-0.1h-0.1c0,0,0,0-0.1,0c0,0,0,0,0-0.1v-2.1c0,0,0,0,0-0.1c0,0,0,0,0.1,0h0.1h0.1h0.1
			h0.1c0,0,0,0,0.1,0c0,0,0,0,0,0.1L66.7,16.7L66.7,16.7z"/>
		<path class="st2" d="M67.9,16.7L67.9,16.7C67.8,16.7,67.8,16.7,67.9,16.7C67.8,16.7,67.8,16.7,67.9,16.7h-0.2h-0.1h-0.1
			c0,0,0,0-0.1,0c0,0,0,0,0-0.1v-3.2c0,0,0,0,0-0.1c0,0,0,0,0.1,0h0.1h0.1h0.1l0,0c0,0,0,0,0.1,0c0,0,0,0,0,0.1V16.7z"/>
		<path class="st2" d="M69,13.8c0,0.1,0,0.2-0.1,0.2c-0.1,0.1-0.1,0.1-0.2,0.1c-0.1,0-0.2,0-0.2-0.1c-0.1-0.1-0.1-0.1-0.1-0.2
			s0-0.2,0.1-0.2c0.1-0.1,0.1-0.1,0.2-0.1c0.1,0,0.2,0,0.2,0.1C68.9,13.6,69,13.7,69,13.8z M68.9,16.7L68.9,16.7L68.9,16.7
			C68.8,16.8,68.8,16.8,68.9,16.7l-0.2,0.1h-0.1h-0.1c0,0,0,0-0.1,0c0,0,0,0,0-0.1v-2.1c0,0,0,0,0-0.1c0,0,0,0,0.1,0h0.1h0.1h0.1
			h0.1c0,0,0,0,0.1,0c0,0,0,0,0,0.1L68.9,16.7L68.9,16.7z"/>
		<path class="st2" d="M70.7,16.5C70.7,16.6,70.7,16.6,70.7,16.5v0.2c0,0-0.1,0-0.1,0.1h-0.1h-0.1h-0.1c-0.1,0-0.2,0-0.3-0.1
			c-0.1,0-0.1-0.1-0.2-0.1c-0.1-0.1-0.1-0.1-0.1-0.3c0-0.1-0.1-0.2-0.1-0.3v-1.3h-0.3c0,0-0.1,0-0.1-0.1c0-0.1,0-0.1,0-0.1v-0.1
			v-0.1l0,0c0,0,0,0,0.1,0h0.3V14c0,0,0,0,0-0.1c0,0,0,0,0.1,0h0.1H70h0.1h0.1c0,0,0,0,0.1,0c0,0,0,0,0,0.1v0.5h0.5c0,0,0,0,0.1,0
			c0.1,0,0,0,0,0s0,0,0,0.1v0.1c0,0.1,0,0.1,0,0.1l-0.1,0.1h-0.5V16c0,0.1,0,0.3,0.1,0.3c0.1,0,0,0.2,0.2,0.2c0.1,0,0.1,0,0.1,0
			L70.7,16.5L70.7,16.5C70.6,16.4,70.6,16.4,70.7,16.5L70.7,16.5L70.7,16.5C70.7,16.4,70.7,16.4,70.7,16.5L70.7,16.5z"/>
		<path class="st2" d="M72.3,16.7L72,17.5l-0.1,0.1c-0.1,0-0.1,0-0.2,0c-0.1,0-0.1,0-0.1,0h-0.1c0,0,0,0,0-0.1v-0.1l0.3-0.7
			c0,0,0,0-0.1-0.1c0,0,0,0,0-0.1l-0.8-2.1c0-0.1,0-0.1,0-0.1v-0.1H71h0.1h0.1h0.2c0,0,0,0,0.1,0c0.1,0,0,0,0,0.1l0.6,1.7l0,0
			l0.6-1.7c0,0,0-0.1,0.1-0.1h0.1H73h0.1h0.1c0,0,0,0,0,0.1c0,0.1,0,0.1,0,0.1L72.3,16.7z"/>
	</g>
</g>
</svg>
