<?xml version="1.0" encoding="utf-8"?>
<!-- Generator: Adobe Illustrator 24.0.2, SVG Export Plug-In . SVG Version: 6.00 Build 0)  -->
<svg version="1.0" id="Layer_1" xmlns="http://www.w3.org/2000/svg" xmlns:xlink="http://www.w3.org/1999/xlink" x="0px" y="0px"
	 viewBox="0 0 194 106" style="enable-background:new 0 0 194 106;" xml:space="preserve">
<style type="text/css">
	.st0{enable-background:new    ;}
	.st1{fill:#FDC202;}
	.st2{fill:#F4F4F4;}
</style>
<g>
	<g class="st0">
		<path class="st1" d="M2.5,18c0.4,1,0.8,1.8,1.3,2.4c0.9,1,2,1.6,3.3,1.6c0.7,0,1.3-0.2,1.9-0.7c0.5-0.5,0.8-1.1,0.8-1.9
			c0-0.7-0.3-1.4-0.8-1.9c-0.3-0.3-1.1-0.9-2.2-1.6l-1.9-1.2c-0.6-0.4-1-0.7-1.4-1.1c-0.6-0.7-1-1.5-1-2.4c0-1.1,0.4-2.1,1.1-2.8
			c0.8-0.8,1.8-1.1,3-1.1c0.5,0,1.1,0.1,1.9,0.4S9.7,8,9.8,8c0.3,0,0.5-0.1,0.6-0.2s0.2-0.3,0.2-0.6h0.5l0.5,4.8H11
			c-0.4-1.4-1-2.5-1.8-3S7.6,8.2,6.8,8.2c-0.6,0-1.2,0.2-1.6,0.5c-0.5,0.4-0.7,0.9-0.7,1.5s0.2,1.1,0.5,1.5c0.4,0.4,1,0.9,1.7,1.3
			l2,1.2c1.2,0.8,2.1,1.5,2.6,2.1c0.5,0.6,0.8,1.4,0.8,2.3c0,1.2-0.4,2.2-1.3,3s-2,1.2-3.4,1.2c-0.7,0-1.4-0.1-2.2-0.4
			C4.4,22.1,3.9,22,3.8,22c-0.3,0-0.4,0.1-0.5,0.2c-0.1,0.2-0.2,0.3-0.2,0.5H2.6L1.9,18H2.5z"/>
		<path class="st1" d="M21.4,13.3c0.8,0.7,1.2,1.7,1.2,3h-7c0.1,1.7,0.5,2.9,1.2,3.7c0.7,0.8,1.5,1.2,2.5,1.2c0.8,0,1.4-0.2,1.9-0.6
			s1-1,1.5-1.7L23,19c-0.3,0.9-0.9,1.8-1.7,2.6c-0.8,0.8-1.8,1.2-3,1.2c-1.4,0-2.4-0.5-3.2-1.6c-0.8-1-1.1-2.2-1.1-3.6
			c0-1.5,0.4-2.7,1.3-3.8c0.9-1.1,2-1.6,3.4-1.6C19.7,12.2,20.7,12.5,21.4,13.3z M16.2,14.1c-0.2,0.4-0.4,0.9-0.5,1.5h4.6
			c-0.1-0.7-0.2-1.3-0.4-1.6c-0.4-0.6-1-1-1.8-1C17.2,13,16.6,13.4,16.2,14.1z"/>
		<path class="st1" d="M26,17.7c0.7-0.4,2-1,4-1.8V15c0-0.7-0.1-1.3-0.2-1.6c-0.2-0.5-0.8-0.7-1.6-0.7c-0.4,0-0.7,0.1-1.1,0.3
			c-0.3,0.2-0.5,0.5-0.5,0.8c0,0.1,0,0.2,0.1,0.4c0,0.2,0.1,0.3,0.1,0.4c0,0.4-0.1,0.7-0.4,0.9c-0.2,0.1-0.3,0.1-0.6,0.1
			c-0.3,0-0.6-0.1-0.8-0.3c-0.2-0.2-0.3-0.5-0.3-0.7c0-0.5,0.3-1.1,1-1.6c0.6-0.6,1.6-0.8,2.8-0.8c1.4,0,2.4,0.5,2.9,1.4
			c0.3,0.5,0.4,1.2,0.4,2.2v4.4c0,0.4,0,0.7,0.1,0.9c0.1,0.3,0.3,0.4,0.6,0.4c0.2,0,0.3,0,0.4-0.1c0.1-0.1,0.3-0.2,0.6-0.4v0.6
			c-0.2,0.3-0.5,0.5-0.8,0.7c-0.4,0.3-0.8,0.4-1.3,0.4s-0.9-0.2-1.1-0.5S30,21.5,29.9,21c-0.6,0.5-1,0.8-1.4,1.1
			c-0.7,0.4-1.3,0.6-1.9,0.6S25.4,22.5,25,22c-0.5-0.4-0.7-1-0.7-1.7C24.4,19.3,24.9,18.4,26,17.7z M30,16.4
			c-0.8,0.3-1.5,0.6-2.1,0.9c-1.1,0.7-1.6,1.4-1.6,2.2c0,0.7,0.2,1.2,0.7,1.5c0.3,0.2,0.6,0.3,1,0.3c0.5,0,0.9-0.1,1.4-0.4
			c0.4-0.3,0.7-0.6,0.7-1v-3.5H30z"/>
		<path class="st1" d="M34,22.2c0.7-0.1,1.1-0.2,1.4-0.4c0.2-0.2,0.4-0.6,0.4-1.2V9.8c0-0.5,0-0.8-0.1-1c-0.1-0.3-0.4-0.5-0.9-0.5
			c-0.1,0-0.2,0-0.3,0S34.2,8.4,34,8.4V8.1c1-0.3,2.2-0.6,3.6-1.1c0.1,0,0.1,0,0.1,0.1c0,0,0,0.1,0,0.3v13.2c0,0.6,0.1,1.1,0.3,1.2
			c0.2,0.2,0.7,0.3,1.4,0.4v0.3H34V22.2z"/>
	</g>
	<g class="st0">
		<path class="st2" d="M42.7,9.3c1.4-1.3,3.1-2,5.1-2s3.7,0.7,5.1,2c1.5,1.4,2.3,3.4,2.3,5.8c0,1.9-0.5,3.5-1.5,4.9
			c-1.1,1.4-2.6,2.3-4.5,2.7c0.9,1.3,2,2.2,3.3,2.8c0.7,0.3,1.7,0.5,2.9,0.7v0.4h-0.9c-1.2,0-2.3-0.1-3.2-0.3
			c-0.9-0.2-1.8-0.5-2.6-0.9s-1.5-0.9-2.1-1.7c-0.7-0.7-1-1.1-1.1-1.1l-0.3-0.1c-1.2-0.6-2.2-1.2-2.9-2c-1.3-1.4-1.9-3.2-1.9-5.4
			C40.5,12.6,41.2,10.7,42.7,9.3z M44.4,20.3c0.9,1.1,2.1,1.7,3.4,1.7c1.3,0,2.5-0.6,3.4-1.7s1.4-2.9,1.4-5.3c0-2.5-0.5-4.2-1.4-5.3
			s-2.1-1.6-3.4-1.6c-1.4,0-2.5,0.6-3.4,1.7S43,12.7,43,15.1C43,17.4,43.5,19.2,44.4,20.3z"/>
		<path class="st2" d="M59.6,12.3v7c0,0.5,0.1,0.9,0.2,1.2c0.3,0.6,0.8,0.8,1.5,0.8c0.5,0,1-0.2,1.5-0.5c0.3-0.2,0.5-0.4,0.8-0.8v-6
			c0-0.6-0.1-0.9-0.3-1.1c-0.2-0.2-0.7-0.3-1.3-0.3v-0.4h3.6V20c0,0.5,0.1,0.8,0.3,1c0.2,0.2,0.6,0.3,1.1,0.2v0.3
			c-0.4,0.1-0.7,0.2-0.9,0.2c-0.2,0.1-0.5,0.2-1,0.3c-0.2,0.1-0.6,0.2-1.3,0.5h-0.1v-0.1v-1.8c-0.5,0.6-1,1-1.4,1.3
			c-0.6,0.4-1.3,0.7-2,0.7c-0.6,0-1.2-0.2-1.8-0.7c-0.6-0.4-0.9-1.2-0.9-2.3v-5.7c0-0.6-0.1-1-0.4-1.2c-0.2-0.1-0.5-0.2-1-0.3v-0.3
			h3.4V12.3z"/>
		<path class="st2" d="M69.8,17.7c0.7-0.4,2-1,4-1.8V15c0-0.7-0.1-1.3-0.2-1.6c-0.2-0.5-0.8-0.7-1.6-0.7c-0.4,0-0.7,0.1-1.1,0.3
			c-0.3,0.2-0.5,0.5-0.5,0.8c0,0.1,0,0.2,0.1,0.4c0,0.2,0.1,0.3,0.1,0.4c0,0.4-0.1,0.7-0.4,0.9c-0.2,0.1-0.3,0.1-0.6,0.1
			c-0.3,0-0.6-0.1-0.8-0.3c-0.2-0.2-0.3-0.5-0.3-0.7c0-0.5,0.3-1.1,1-1.6c0.6-0.6,1.6-0.8,2.8-0.8c1.4,0,2.4,0.5,2.9,1.4
			c0.3,0.5,0.4,1.2,0.4,2.2v4.4c0,0.4,0,0.7,0.1,0.9c0.1,0.3,0.3,0.4,0.6,0.4c0.2,0,0.3,0,0.4-0.1s0.3-0.2,0.6-0.4v0.6
			c-0.2,0.3-0.5,0.5-0.8,0.7c-0.4,0.3-0.8,0.4-1.3,0.4s-0.9-0.2-1.1-0.5s-0.3-0.7-0.4-1.2c-0.6,0.5-1,0.8-1.4,1.1
			c-0.7,0.4-1.3,0.6-1.9,0.6s-1.2-0.2-1.6-0.7c-0.5-0.4-0.7-1-0.7-1.7C68.2,19.3,68.7,18.4,69.8,17.7z M73.8,16.4
			c-0.8,0.3-1.5,0.6-2.1,0.9c-1.1,0.7-1.6,1.4-1.6,2.2c0,0.7,0.2,1.2,0.7,1.5c0.3,0.2,0.6,0.3,1,0.3c0.5,0,0.9-0.1,1.4-0.4
			c0.4-0.3,0.7-0.6,0.7-1L73.8,16.4L73.8,16.4z"/>
		<path class="st2" d="M77.8,22.2c0.7-0.1,1.1-0.2,1.4-0.4c0.2-0.2,0.4-0.6,0.4-1.2V9.8c0-0.5,0-0.8-0.1-1c-0.1-0.3-0.4-0.5-0.9-0.5
			c-0.1,0-0.2,0-0.3,0c-0.1,0-0.3,0.1-0.5,0.1V8.1c1-0.3,2.2-0.6,3.6-1.1c0.1,0,0.1,0,0.1,0.1c0,0,0,0.1,0,0.3v13.2
			c0,0.6,0.1,1.1,0.3,1.2c0.2,0.2,0.7,0.3,1.4,0.4v0.3h-5.3L77.8,22.2L77.8,22.2z"/>
		<path class="st2" d="M84.1,22.2c0.8-0.1,1.3-0.2,1.5-0.4c0.2-0.2,0.3-0.7,0.3-1.6V15c0-0.5,0-0.8-0.1-1c-0.1-0.3-0.3-0.5-0.7-0.5
			c-0.1,0-0.2,0-0.2,0s-0.3,0.1-0.7,0.2v-0.3l0.5-0.2c1.3-0.4,2.2-0.7,2.7-0.9c0.2-0.1,0.3-0.1,0.4-0.1c0,0.1,0,0.1,0,0.2v7.9
			c0,0.8,0.1,1.4,0.3,1.6c0.2,0.2,0.7,0.3,1.4,0.4v0.3h-5.4L84.1,22.2L84.1,22.2z M85.8,7.5c0.2-0.2,0.5-0.3,0.8-0.3
			s0.6,0.1,0.8,0.3s0.3,0.5,0.3,0.8s-0.1,0.6-0.3,0.8S87,9.4,86.7,9.4s-0.6-0.1-0.8-0.3c-0.2-0.2-0.3-0.5-0.3-0.8S85.6,7.7,85.8,7.5
			z"/>
		<path class="st2" d="M95.6,12.4v0.8h-2.2v6.3c0,0.6,0,1,0.1,1.3c0.2,0.5,0.5,0.8,1,0.8c0.3,0,0.5-0.1,0.7-0.2s0.4-0.3,0.7-0.6
			l0.3,0.2L96,21.3c-0.4,0.5-0.8,0.9-1.2,1.1c-0.4,0.2-0.8,0.3-1.2,0.3c-0.9,0-1.5-0.4-1.8-1.2c-0.2-0.4-0.3-1-0.3-1.7v-6.7h-1.2
			c0,0-0.1,0-0.1-0.1v-0.1c0-0.1,0-0.1,0-0.2c0,0,0.1-0.1,0.3-0.3c0.5-0.4,0.9-0.8,1.1-1c0.2-0.3,0.8-0.9,1.6-2.1c0.1,0,0.2,0,0.2,0
			s0,0.1,0,0.2v2.7h2.2V12.4z"/>
		<path class="st2" d="M96.5,12.4h4.6v0.3c-0.4,0-0.6,0-0.8,0.1c-0.3,0.1-0.5,0.3-0.5,0.6c0,0.1,0,0.2,0.1,0.3
			c0,0.1,0.1,0.3,0.2,0.5l2.5,5.5l2.1-5.6c0-0.1,0.1-0.2,0.1-0.4s0.1-0.4,0.1-0.4c0-0.2-0.1-0.3-0.2-0.4c-0.1-0.1-0.3-0.1-0.5-0.2
			h-0.3v-0.3h3v0.3c-0.3,0-0.5,0.1-0.7,0.3s-0.3,0.4-0.4,0.7l-3.5,9.2c-0.6,1.6-1.2,2.7-1.7,3.4c-0.6,0.7-1.2,1.1-2.1,1.1
			c-0.4,0-0.8-0.1-1.2-0.3c-0.4-0.2-0.5-0.5-0.5-1c0-0.3,0.1-0.5,0.3-0.7c0.2-0.2,0.5-0.3,0.8-0.3c0.2,0,0.5,0.1,0.8,0.2
			c0.4,0.1,0.6,0.2,0.8,0.2c0.4,0,0.8-0.5,1.3-1.5c0.4-1,0.7-1.7,0.7-2c0-0.1,0-0.1,0-0.2s0-0.2-0.1-0.3L98,14.1
			c-0.2-0.5-0.5-0.9-0.7-1.1c-0.2-0.2-0.5-0.3-0.8-0.3V12.4z"/>
	</g>
	<g class="st0">
		<path class="st2" d="M5.5,32.6L5.5,32.6v0.2c0,0,0,0,0,0.1s0,0-0.1,0H2.9c-0.1,0-0.1,0-0.2-0.1c-0.1,0-0.1-0.1-0.1-0.2v-4.5
			c0-0.1,0-0.2,0.1-0.2s0.1-0.1,0.2-0.1h2.4c0,0,0,0,0.1,0c0,0,0,0,0,0.1s0,0.1,0,0.1v0.1v0.1v0.1l0,0c0,0,0,0-0.1,0h-2V30H5
			c0,0,0,0,0.1,0l0,0c0,0,0,0,0,0.1v0.1v0.1v0.1l0,0c0,0,0,0-0.1,0H3.3v1.8h2c0,0,0,0,0.1,0s0,0,0,0v0.1L5.5,32.6z"/>
		<path class="st2" d="M9.5,32.8L9.5,32.8C9.5,32.9,9.5,32.9,9.5,32.8c-0.1,0.1-0.1,0.1-0.2,0.1s-0.1,0-0.2,0c-0.1,0-0.1,0-0.2,0
			H8.8c0,0,0,0-0.1,0c0,0,0,0,0-0.1v-2.1c0-0.2,0-0.4,0-0.5S8.6,30,8.6,29.9c-0.1-0.1-0.1-0.2-0.2-0.2c-0.1,0-0.2-0.1-0.3-0.1
			c-0.2,0-0.3,0.1-0.5,0.2s-0.3,0.3-0.5,0.5v2.5c0,0,0,0,0,0.1c0,0,0,0-0.1,0s-0.1,0-0.1,0s-0.1,0-0.2,0s-0.1,0-0.2,0H6.4
			c0,0,0,0-0.1,0c0,0,0,0,0-0.1v-3.5c0,0,0,0,0-0.1s0,0,0,0h0.1h0.1c0.1,0,0.1,0,0.1,0h0.1l0,0c0,0,0,0,0,0.1v0.5
			c0.2-0.2,0.4-0.4,0.6-0.5s0.4-0.2,0.6-0.2s0.4,0,0.6,0.1s0.3,0.2,0.4,0.3s0.2,0.3,0.2,0.5s0.1,0.4,0.1,0.6v2.2H9.5z"/>
		<path class="st2" d="M13.4,29.3L13.4,29.3L13.4,29.3c0,0.1,0,0.1,0,0.1s0,0,0,0.1l-1.2,3.3v0.1c0,0,0,0-0.1,0s-0.1,0-0.1,0
			s-0.1,0-0.2,0s-0.1,0-0.2,0s-0.1,0-0.1,0h-0.1c0,0,0,0,0-0.1l-1.2-3.3v-0.1c0,0,0,0,0-0.1s0,0,0,0s0,0,0-0.1s0,0,0.1,0
			s0.1,0,0.1,0s0.1,0,0.2,0c0.1,0,0.1,0,0.2,0h0.1c0,0,0,0,0.1,0s0,0,0,0.1l1,2.9l0,0l0,0l1-2.9c0,0,0,0,0-0.1c0,0,0,0,0.1,0h0.1
			C13.2,29.2,13.3,29.2,13.4,29.3c0.1-0.1,0.1-0.1,0.1-0.1S13.4,29.2,13.4,29.3C13.4,29.2,13.4,29.2,13.4,29.3
			C13.4,29.2,13.4,29.3,13.4,29.3z"/>
		<path class="st2" d="M14.9,28.1c0,0.2,0,0.3-0.1,0.3c-0.1,0.1-0.2,0.1-0.3,0.1c-0.2,0-0.3,0-0.3-0.1c-0.1-0.1-0.1-0.2-0.1-0.3
			c0-0.2,0-0.3,0.1-0.3c0.1-0.1,0.2-0.1,0.3-0.1c0.2,0,0.3,0,0.3,0.1C14.9,27.8,14.9,27.9,14.9,28.1z M14.8,32.8L14.8,32.8
			C14.8,32.9,14.8,32.9,14.8,32.8c-0.1,0.1-0.1,0.1-0.2,0.1c0,0-0.1,0-0.2,0c-0.1,0-0.1,0-0.2,0h-0.1c0,0,0,0-0.1,0c0,0,0,0,0-0.1
			v-3.5c0,0,0,0,0-0.1c0,0,0,0,0.1,0h0.1c0,0,0.1,0,0.2,0c0.1,0,0.1,0,0.2,0h0.1c0,0,0,0,0.1,0c0,0,0,0,0,0.1
			C14.8,29.3,14.8,32.8,14.8,32.8z"/>
		<path class="st2" d="M18.1,29.5c0,0.1,0,0.1,0,0.1v0.1c0,0,0,0,0,0.1s0,0,0,0s0,0-0.1,0h-0.1h-0.1c0,0-0.1,0-0.2,0s-0.1,0-0.2,0
			s-0.1,0.1-0.2,0.1C17.1,30,17.1,30,17,30.1s-0.2,0.2-0.2,0.4v2.3c0,0,0,0,0,0.1c0,0,0,0-0.1,0s-0.1,0-0.1,0s-0.1,0-0.2,0
			s-0.1,0-0.2,0h-0.1c0,0,0,0-0.1,0c0,0,0,0,0-0.1v-3.5c0,0,0,0,0-0.1s0,0,0,0h0.1h0.1c0.1,0,0.1,0,0.1,0h0.1l0,0c0,0,0,0,0,0.1v0.5
			c0.1-0.1,0.2-0.3,0.3-0.3c0.1-0.1,0.2-0.2,0.2-0.2l0.2-0.1c0,0,0.1,0,0.2,0h0.1h0.1h0.1h0.1l0,0l0,0c0,0,0,0,0,0.1
			C18.1,29.4,18.1,29.5,18.1,29.5z"/>
		<path class="st2" d="M21.9,31c0,0.3,0,0.6-0.1,0.8c-0.1,0.2-0.2,0.4-0.3,0.6s-0.3,0.3-0.6,0.4c-0.2,0.1-0.5,0.1-0.8,0.1
			s-0.5,0-0.8-0.1s-0.4-0.2-0.5-0.4s-0.2-0.4-0.3-0.6s-0.1-0.5-0.1-0.8s0-0.5,0.1-0.8c0.1-0.2,0.2-0.4,0.3-0.6
			c0.1-0.2,0.3-0.3,0.6-0.4s0.5-0.1,0.8-0.1s0.5,0,0.8,0.1s0.4,0.2,0.5,0.4c0.1,0.2,0.3,0.4,0.3,0.6S21.9,30.7,21.9,31z M21.3,31
			c0-0.2,0-0.4-0.1-0.5c0-0.2-0.1-0.3-0.2-0.4s-0.2-0.2-0.3-0.3s-0.3-0.1-0.5-0.1s-0.4,0-0.5,0.1s-0.3,0.2-0.3,0.3
			c-0.1,0.1-0.2,0.3-0.2,0.4c0,0.2-0.1,0.4-0.1,0.6s0,0.4,0.1,0.5c0,0.2,0.1,0.3,0.2,0.4c0.1,0.1,0.2,0.2,0.3,0.3s0.3,0.1,0.5,0.1
			s0.4,0,0.5-0.1S21,32.1,21,32c0.1-0.1,0.2-0.3,0.2-0.4C21.3,31.4,21.3,31.2,21.3,31z"/>
		<path class="st2" d="M25.9,32.8L25.9,32.8C25.9,32.9,25.9,32.9,25.9,32.8c-0.1,0.1-0.1,0.1-0.2,0.1s-0.1,0-0.2,0s-0.1,0-0.2,0
			h-0.1c0,0,0,0-0.1,0c0,0,0,0,0-0.1v-2.1c0-0.2,0-0.4,0-0.5S25,30,25,29.9c-0.1-0.1-0.1-0.2-0.2-0.2s-0.2-0.1-0.3-0.1
			c-0.2,0-0.3,0.1-0.5,0.2s-0.3,0.3-0.5,0.5v2.5c0,0,0,0,0,0.1c0,0,0,0-0.1,0s-0.1,0-0.1,0s-0.1,0-0.2,0s-0.1,0-0.2,0h-0.1
			c0,0,0,0-0.1,0c0,0,0,0,0-0.1v-3.5c0,0,0,0,0-0.1s0,0,0,0h0.1h0.1c0.1,0,0.1,0,0.1,0h0.1l0,0c0,0,0,0,0,0.1v0.5
			c0.2-0.2,0.4-0.4,0.6-0.5s0.4-0.2,0.6-0.2s0.4,0,0.6,0.1s0.3,0.2,0.4,0.3s0.2,0.3,0.2,0.5s0.1,0.4,0.1,0.6v2.2H25.9z"/>
		<path class="st2" d="M32.3,32.8L32.3,32.8C32.3,32.9,32.3,32.9,32.3,32.8c-0.1,0.1-0.1,0.1-0.2,0.1s-0.1,0-0.2,0s-0.1,0-0.2,0
			s-0.1,0-0.1,0s0,0-0.1,0s0,0,0-0.1v-2.1c0-0.1,0-0.3,0-0.4s-0.1-0.2-0.1-0.3c-0.1-0.1-0.1-0.2-0.2-0.2s-0.2-0.1-0.3-0.1
			c-0.1,0-0.3,0.1-0.4,0.2s-0.3,0.3-0.5,0.5v2.5c0,0,0,0,0,0.1s0,0-0.1,0s-0.1,0-0.1,0s-0.1,0-0.2,0s-0.1,0-0.2,0s-0.1,0-0.1,0
			s0,0-0.1,0c0,0,0,0,0-0.1v-2.1c0-0.1,0-0.3,0-0.4s-0.1-0.2-0.1-0.3C29,30,29,29.9,28.9,29.9s-0.2-0.1-0.3-0.1
			c-0.1,0-0.3,0.1-0.4,0.2c-0.2,0.1-0.3,0.3-0.5,0.5V33c0,0,0,0,0,0.1c0,0,0,0-0.1,0s-0.1,0-0.1,0s-0.1,0-0.2,0s-0.1,0-0.2,0H27
			c0,0,0,0-0.1,0c0,0,0,0,0-0.1v-3.5c0,0,0,0,0-0.1s0,0,0,0H27h0.1c0.1,0,0.1,0,0.1,0h0.1l0,0c0,0,0,0,0,0.1V30
			c0.2-0.2,0.4-0.4,0.6-0.5s0.4-0.2,0.6-0.2c0.1,0,0.3,0,0.4,0.1c0.1,0,0.2,0.1,0.3,0.1c0.1,0.1,0.2,0.1,0.2,0.2s0.1,0.2,0.2,0.3
			c0.1-0.1,0.2-0.2,0.3-0.3s0.2-0.2,0.3-0.2s0.2-0.1,0.3-0.1c0.1,0,0.2,0,0.3,0c0.2,0,0.4,0,0.6,0.1s0.3,0.2,0.4,0.3
			s0.2,0.3,0.2,0.5s0.1,0.4,0.1,0.6v1.9H32.3z"/>
		<path class="st2" d="M36.5,30.9c0,0.1,0,0.2-0.1,0.2s-0.1,0.1-0.2,0.1h-2.3c0,0.2,0,0.4,0.1,0.5c0,0.2,0.1,0.3,0.2,0.4
			c0.1,0.1,0.2,0.2,0.4,0.3s0.3,0.1,0.5,0.1s0.3,0,0.4,0s0.2-0.1,0.3-0.1s0.2-0.1,0.2-0.1h0.1l0,0l0,0c0,0,0,0,0,0.1s0,0.1,0,0.1
			v0.1c0,0,0,0,0,0.1s0,0,0,0.1s0,0,0,0s-0.1,0-0.1,0.1S35.8,33,35.7,33s-0.2,0.1-0.4,0.1c-0.1,0-0.3,0-0.5,0c-0.3,0-0.5,0-0.8-0.1
			c-0.2-0.1-0.4-0.2-0.5-0.4s-0.3-0.4-0.3-0.6c-0.1-0.2-0.1-0.5-0.1-0.8s0-0.6,0.1-0.8c0.1-0.2,0.2-0.4,0.3-0.6s0.3-0.3,0.5-0.4
			s0.4-0.1,0.7-0.1s0.5,0,0.7,0.1s0.4,0.2,0.5,0.4s0.2,0.3,0.3,0.5s0.1,0.4,0.1,0.6v0H36.5z M35.8,30.7c0-0.3-0.1-0.6-0.2-0.8
			c-0.2-0.2-0.4-0.3-0.7-0.3c-0.2,0-0.3,0-0.4,0.1s-0.2,0.1-0.3,0.2C34.1,30,34,30.2,34,30.3c0,0.1-0.1,0.3-0.1,0.4
			C33.9,30.7,35.8,30.7,35.8,30.7z"/>
		<path class="st2" d="M40.5,32.8L40.5,32.8C40.5,32.9,40.5,32.9,40.5,32.8c-0.1,0.1-0.1,0.1-0.2,0.1s-0.1,0-0.2,0
			c-0.1,0-0.1,0-0.2,0h-0.1c0,0,0,0-0.1,0c0,0,0,0,0-0.1v-2.1c0-0.2,0-0.4,0-0.5s-0.1-0.2-0.1-0.3c-0.1-0.1-0.1-0.2-0.2-0.2
			c-0.1,0-0.2-0.1-0.3-0.1c-0.2,0-0.3,0.1-0.5,0.2s-0.3,0.3-0.5,0.5v2.5c0,0,0,0,0,0.1c0,0,0,0-0.1,0s-0.1,0-0.1,0s-0.1,0-0.2,0
			c-0.1,0-0.1,0-0.2,0h-0.1c0,0,0,0-0.1,0c0,0,0,0,0-0.1v-3.5c0,0,0,0,0-0.1s0,0,0,0h0.1h0.1c0.1,0,0.1,0,0.1,0h0.1l0,0
			c0,0,0,0,0,0.1v0.5c0.2-0.2,0.4-0.4,0.6-0.5s0.4-0.2,0.6-0.2c0.2,0,0.4,0,0.6,0.1s0.3,0.2,0.4,0.3s0.2,0.3,0.2,0.5
			s0.1,0.4,0.1,0.6v2.2H40.5z"/>
		<path class="st2" d="M43.4,32.5c0,0.1,0,0.1,0,0.2v0.1c0,0-0.1,0-0.1,0.1h-0.1c0,0-0.1,0-0.2,0s-0.1,0-0.2,0c-0.2,0-0.3,0-0.5-0.1
			c-0.1,0-0.2-0.1-0.3-0.2c-0.1-0.1-0.1-0.2-0.2-0.4c0-0.2-0.1-0.3-0.1-0.5v-2.1h-0.5c0,0-0.1,0-0.1-0.1s0-0.1,0-0.2v-0.1v-0.1l0,0
			c0,0,0,0,0.1,0h0.5v-0.8c0,0,0,0,0-0.1c0,0,0,0,0.1,0h0.1c0,0,0.1,0,0.2,0c0.1,0,0.1,0,0.2,0h0.1c0,0,0,0,0.1,0c0,0,0,0,0,0.1v0.8
			h0.9c0,0,0,0,0.1,0s0,0,0,0s0,0,0,0.1v0.1c0,0.1,0,0.2,0,0.2l-0.1,0.1h-0.9v2c0,0.2,0,0.4,0.1,0.5s0.2,0.2,0.4,0.2
			c0.1,0,0.1,0,0.2,0s0.1,0,0.1,0h0.1c0,0,0,0,0.1,0l0,0l0,0c0,0,0,0,0,0.1C43.4,32.5,43.4,32.5,43.4,32.5z"/>
		<path class="st2" d="M46.8,32.8C46.8,32.8,46.8,32.9,46.8,32.8C46.7,32.9,46.7,32.9,46.8,32.8c-0.1,0.1-0.2,0.1-0.3,0.1
			c-0.1,0-0.1,0-0.2,0h-0.1c0,0,0,0,0-0.1v-0.4c-0.2,0.2-0.3,0.3-0.5,0.4S45.4,33,45.2,33s-0.4,0-0.5-0.1c-0.1,0-0.3-0.1-0.4-0.2
			s-0.2-0.2-0.2-0.3S44,32.1,44,31.9s0-0.4,0.1-0.5s0.2-0.3,0.3-0.4c0.2-0.1,0.3-0.2,0.6-0.2c0.2,0,0.5-0.1,0.7-0.1h0.5v-0.3
			c0-0.1,0-0.3,0-0.4s-0.1-0.2-0.1-0.3c-0.1-0.1-0.1-0.1-0.2-0.2s-0.2-0.1-0.4-0.1s-0.3,0-0.4,0.1c-0.1,0-0.2,0.1-0.3,0.1
			s-0.2,0.1-0.2,0.1c-0.1,0-0.1,0.1-0.1,0.1s0,0-0.1,0l0,0c0,0,0,0,0-0.1v-0.1c0-0.1,0-0.1,0-0.2c0,0,0-0.1,0.1-0.1s0.1-0.1,0.2-0.1
			s0.2-0.1,0.3-0.1s0.2-0.1,0.4-0.1s0.3,0,0.4,0c0.3,0,0.5,0,0.6,0.1c0.2,0.1,0.3,0.1,0.4,0.3s0.2,0.2,0.2,0.4
			c0,0.2,0.1,0.4,0.1,0.6v2.4H46.8z M46.2,31.2h-0.6c-0.2,0-0.3,0-0.5,0c-0.1,0-0.2,0.1-0.3,0.1s-0.1,0.1-0.2,0.2
			c0,0.1-0.1,0.2-0.1,0.3c0,0.2,0.1,0.3,0.2,0.4c0.1,0.1,0.3,0.2,0.5,0.2s0.3,0,0.5-0.1s0.3-0.2,0.5-0.4
			C46.2,31.9,46.2,31.2,46.2,31.2z"/>
		<path class="st2" d="M48.7,32.8L48.7,32.8C48.6,32.9,48.6,32.9,48.7,32.8c-0.1,0.1-0.1,0.1-0.2,0.1c0,0-0.1,0-0.2,0
			c-0.1,0-0.1,0-0.2,0H48c0,0,0,0-0.1,0c0,0,0,0,0-0.1v-5.2c0,0,0,0,0-0.1c0,0,0,0,0.1,0h0.1c0,0,0.1,0,0.2,0c0.1,0,0.1,0,0.2,0h0.1
			c0,0,0,0,0.1,0c0,0,0,0,0,0.1C48.7,27.6,48.7,32.8,48.7,32.8z"/>
		<path class="st2" d="M55.1,32.8L55.1,32.8C55.1,32.9,55.1,32.9,55.1,32.8c-0.1,0.1-0.1,0.1-0.2,0.1s-0.1,0-0.2,0
			c-0.1,0-0.1,0-0.2,0s-0.1,0-0.1,0s0,0-0.1,0s0,0,0-0.1l-0.5-1.2c-0.1-0.1-0.1-0.3-0.2-0.4c-0.1-0.1-0.1-0.2-0.2-0.3
			c-0.1-0.1-0.2-0.1-0.3-0.2c-0.1,0-0.2-0.1-0.4-0.1h-0.4v2.2c0,0,0,0,0,0.1s0,0-0.1,0h-0.1c0,0-0.1,0-0.2,0c-0.1,0-0.1,0-0.2,0
			h-0.1c0,0,0,0-0.1,0c0,0,0,0,0-0.1v-4.7c0-0.1,0-0.2,0.1-0.2s0.1-0.1,0.2-0.1h1.1c0.1,0,0.2,0,0.3,0s0.2,0,0.2,0
			c0.2,0,0.4,0.1,0.5,0.2s0.3,0.2,0.4,0.3c0.1,0.1,0.2,0.2,0.2,0.4s0.1,0.3,0.1,0.5s0,0.3-0.1,0.5s-0.1,0.3-0.2,0.4
			c-0.1,0.1-0.2,0.2-0.3,0.3c-0.1,0.1-0.3,0.1-0.4,0.2c0.1,0,0.2,0.1,0.2,0.1c0.1,0.1,0.1,0.1,0.2,0.2s0.1,0.2,0.2,0.3
			c0.1,0.1,0.1,0.2,0.2,0.3l0.5,1.1C55.1,32.6,55.1,32.7,55.1,32.8C55.1,32.7,55.1,32.8,55.1,32.8z M54.1,29.2c0-0.2,0-0.4-0.1-0.5
			s-0.2-0.2-0.4-0.3c-0.1,0-0.1,0-0.2,0s-0.2,0-0.3,0h-0.6v1.7h0.7c0.2,0,0.3,0,0.5-0.1s0.2-0.1,0.3-0.2s0.1-0.2,0.2-0.3
			C54.1,29.5,54.1,29.4,54.1,29.2z"/>
		<path class="st2" d="M58.9,30.9c0,0.1,0,0.2-0.1,0.2s-0.1,0.1-0.2,0.1h-2.3c0,0.2,0,0.4,0.1,0.5c0,0.2,0.1,0.3,0.2,0.4
			c0.1,0.1,0.2,0.2,0.4,0.3s0.3,0.1,0.5,0.1s0.3,0,0.4,0s0.2-0.1,0.3-0.1s0.2-0.1,0.2-0.1h0.1l0,0l0,0c0,0,0,0,0,0.1s0,0.1,0,0.1
			v0.1c0,0,0,0,0,0.1s0,0,0,0.1s0,0,0,0s-0.1,0-0.1,0.1S58.2,33,58.1,33s-0.2,0.1-0.4,0.1c-0.1,0-0.3,0-0.5,0c-0.3,0-0.5,0-0.8-0.1
			c-0.2-0.1-0.4-0.2-0.5-0.4s-0.3-0.4-0.3-0.6c-0.1-0.2-0.1-0.5-0.1-0.8s0-0.6,0.1-0.8c0.1-0.2,0.2-0.4,0.3-0.6s0.3-0.3,0.5-0.4
			s0.4-0.1,0.7-0.1s0.5,0,0.7,0.1s0.4,0.2,0.5,0.4s0.2,0.3,0.3,0.5s0.1,0.4,0.1,0.6v0H58.9z M58.2,30.7c0-0.3-0.1-0.6-0.2-0.8
			c-0.2-0.2-0.4-0.3-0.7-0.3c-0.2,0-0.3,0-0.4,0.1s-0.2,0.1-0.3,0.2s-0.1,0.2-0.2,0.3c0,0.1-0.1,0.3-0.1,0.4L58.2,30.7L58.2,30.7z"
			/>
		<path class="st2" d="M62.1,31.8c0,0.2,0,0.3-0.1,0.5c-0.1,0.1-0.2,0.3-0.3,0.4c-0.1,0.1-0.3,0.2-0.4,0.2S60.9,33,60.7,33
			c-0.1,0-0.2,0-0.4,0s-0.2,0-0.3-0.1s-0.2-0.1-0.2-0.1l-0.1-0.1c0,0,0-0.1-0.1-0.1s0-0.1,0-0.2v-0.1v-0.1l0,0l0,0
			c0,0,0.1,0,0.1,0.1c0.1,0,0.1,0.1,0.2,0.1s0.2,0.1,0.3,0.1s0.2,0.1,0.4,0.1c0.1,0,0.2,0,0.3,0s0.2-0.1,0.2-0.1s0.1-0.1,0.2-0.2
			s0.1-0.2,0.1-0.2c0-0.1,0-0.2-0.1-0.2c-0.1-0.1-0.1-0.1-0.2-0.2c-0.1-0.1-0.2-0.1-0.3-0.1s-0.2-0.1-0.3-0.1s-0.2-0.1-0.3-0.2
			s-0.2-0.1-0.3-0.2s-0.2-0.2-0.2-0.3c-0.1-0.1-0.1-0.2-0.1-0.4c0-0.1,0-0.3,0.1-0.4s0.1-0.2,0.2-0.3c0.1-0.1,0.2-0.2,0.4-0.2
			s0.3-0.1,0.6-0.1c0.1,0,0.2,0,0.3,0s0.2,0,0.3,0.1s0.1,0,0.2,0.1c0.1,0,0.1,0.1,0.1,0.1s0,0,0.1,0.1c0,0,0,0,0,0.1s0,0,0,0.1
			s0,0.1,0,0.1v0.1v0.1l0,0l0,0h-0.1c0,0-0.1-0.1-0.2-0.1s-0.2-0.1-0.2-0.1s-0.2,0-0.3,0s-0.2,0-0.3,0s-0.2,0.1-0.2,0.1
			c-0.1,0-0.1,0.1-0.1,0.2s0,0.1,0,0.2s0,0.2,0.1,0.3c0.1,0.1,0.1,0.1,0.2,0.2c0.1,0.1,0.2,0.1,0.3,0.1s0.2,0.1,0.3,0.1
			s0.2,0.1,0.3,0.1c0.1,0.1,0.2,0.1,0.3,0.2s0.2,0.2,0.2,0.3S62.1,31.7,62.1,31.8z"/>
		<path class="st2" d="M66.2,31c0,0.3,0,0.6-0.1,0.8c-0.1,0.2-0.2,0.5-0.3,0.6s-0.3,0.3-0.5,0.4c-0.2,0.1-0.4,0.1-0.7,0.1
			c-0.1,0-0.2,0-0.3,0s-0.2-0.1-0.3-0.1s-0.2-0.1-0.3-0.2s-0.2-0.1-0.3-0.2v1.8c0,0,0,0,0,0.1c0,0,0,0-0.1,0h-0.1c0,0-0.1,0-0.2,0
			c-0.1,0-0.1,0-0.2,0h-0.1c0,0,0,0-0.1,0c0,0,0,0,0-0.1v-4.9c0,0,0,0,0-0.1s0,0,0,0h0.1h0.1c0.1,0,0.1,0,0.1,0H63l0,0
			c0,0,0,0,0,0.1v0.5c0.1-0.1,0.2-0.2,0.3-0.3s0.2-0.1,0.3-0.2s0.2-0.1,0.3-0.1s0.2,0,0.3,0c0.3,0,0.5,0,0.7,0.1s0.3,0.2,0.4,0.4
			s0.2,0.4,0.2,0.6C66.2,30.5,66.2,30.7,66.2,31z M65.5,31.1c0-0.2,0-0.4,0-0.5c0-0.2-0.1-0.3-0.1-0.4c-0.1-0.1-0.2-0.2-0.3-0.3
			s-0.3-0.1-0.4-0.1s-0.2,0-0.2,0l-0.2,0.1c0,0-0.3,0-0.4,0.1s-0.2,0.2-0.3,0.3v1.4c0.2,0.2,0.3,0.4,0.5,0.5
			c0.2,0.1,0.3,0.2,0.5,0.2s0.3,0,0.4-0.1s0.2-0.2,0.3-0.3c0.1-0.1,0.1-0.3,0.2-0.4C65.5,31.4,65.5,31.2,65.5,31.1z"/>
		<path class="st2" d="M70.5,31c0,0.3,0,0.6-0.1,0.8c-0.1,0.2-0.2,0.4-0.3,0.6s-0.3,0.3-0.6,0.4C69.2,32.9,69,33,68.7,33
			s-0.5,0-0.8-0.1s-0.4-0.2-0.5-0.4s-0.2-0.4-0.3-0.6S67,31.4,67,31.1s0-0.5,0.1-0.8c0.1-0.2,0.2-0.4,0.3-0.6
			c0.1-0.2,0.3-0.3,0.6-0.4s0.5-0.1,0.8-0.1s0.5,0,0.8,0.1s0.4,0.2,0.5,0.4c0.1,0.2,0.3,0.4,0.3,0.6S70.5,30.7,70.5,31z M69.8,31
			c0-0.2,0-0.4-0.1-0.5c0-0.2-0.1-0.3-0.2-0.4s-0.2-0.2-0.3-0.3s-0.3-0.1-0.5-0.1s-0.4,0-0.5,0.1s-0.3,0.2-0.3,0.3
			c-0.1,0.1-0.2,0.3-0.2,0.4c0,0.2-0.1,0.4-0.1,0.6s0,0.4,0.1,0.5c0,0.2,0.1,0.3,0.2,0.4c0.1,0.1,0.2,0.2,0.3,0.3s0.3,0.1,0.5,0.1
			s0.4,0,0.5-0.1s0.3-0.2,0.3-0.3c0.1-0.1,0.2-0.3,0.2-0.4C69.8,31.4,69.8,31.2,69.8,31z"/>
		<path class="st2" d="M74.4,32.8L74.4,32.8C74.4,32.9,74.4,32.9,74.4,32.8c-0.1,0.1-0.1,0.1-0.2,0.1s-0.1,0-0.2,0s-0.1,0-0.2,0
			h-0.1c0,0,0,0-0.1,0c0,0,0,0,0-0.1v-2.1c0-0.2,0-0.4,0-0.5s-0.1-0.2-0.1-0.3c-0.1-0.1-0.1-0.2-0.2-0.2s-0.2-0.1-0.3-0.1
			c-0.2,0-0.3,0.1-0.5,0.2s-0.3,0.3-0.5,0.5v2.5c0,0,0,0,0,0.1c0,0,0,0-0.1,0s-0.1,0-0.1,0s-0.1,0-0.2,0s-0.1,0-0.2,0h-0.1
			c0,0,0,0-0.1,0c0,0,0,0,0-0.1v-3.5c0,0,0,0,0-0.1s0,0,0,0h0.1h0.1c0.1,0,0.1,0,0.1,0h0.1l0,0c0,0,0,0,0,0.1v0.5
			c0.2-0.2,0.4-0.4,0.6-0.5s0.4-0.2,0.6-0.2s0.4,0,0.6,0.1s0.3,0.2,0.4,0.3S74,29.8,74,30s0.1,0.4,0.1,0.6v2.2H74.4z"/>
		<path class="st2" d="M77.8,31.8c0,0.2,0,0.3-0.1,0.5c-0.1,0.1-0.2,0.3-0.3,0.4c-0.1,0.1-0.3,0.2-0.4,0.2S76.6,33,76.4,33
			c-0.1,0-0.2,0-0.4,0s-0.2,0-0.3-0.1s-0.2-0.1-0.2-0.1l-0.1-0.1c0,0,0-0.1-0.1-0.1s0-0.1,0-0.2v-0.1v-0.1l0,0l0,0
			c0,0,0.1,0,0.1,0.1c0.1,0,0.1,0.1,0.2,0.1s0.2,0.1,0.3,0.1c0.1,0,0.2,0.1,0.4,0.1c0.1,0,0.2,0,0.3,0s0.2-0.1,0.2-0.1
			s0.1-0.1,0.2-0.2s0.1-0.2,0.1-0.2c0-0.1,0-0.2-0.1-0.2c-0.1-0.1-0.1-0.1-0.2-0.2s-0.2-0.1-0.3-0.1c-0.1,0-0.2-0.1-0.3-0.1
			c-0.1,0-0.2-0.1-0.3-0.2c-0.1-0.1-0.2-0.1-0.3-0.2c-0.1-0.1-0.2-0.2-0.2-0.3c-0.1-0.1-0.1-0.2-0.1-0.4c0-0.1,0-0.3,0.1-0.4
			s0.1-0.2,0.2-0.3c0.1-0.1,0.2-0.2,0.4-0.2s0.3-0.1,0.6-0.1c0.1,0,0.2,0,0.3,0s0.2,0,0.3,0.1s0.1,0,0.2,0.1c0.1,0,0.1,0.1,0.1,0.1
			s0,0,0.1,0.1c0,0,0,0,0,0.1s0,0,0,0.1s0,0.1,0,0.1v0.1v0.1l0,0l0,0h-0.1c0,0-0.1-0.1-0.2-0.1s-0.2-0.1-0.2-0.1s-0.2,0-0.3,0
			c-0.1,0-0.2,0-0.3,0c-0.1,0-0.2,0.1-0.2,0.1c-0.1,0-0.1,0.1-0.1,0.2s0,0.1,0,0.2s0,0.2,0.1,0.3c0.1,0.1,0.1,0.1,0.2,0.2
			s0.2,0.1,0.3,0.1c0.1,0,0.2,0.1,0.3,0.1c0.1,0,0.2,0.1,0.3,0.1c0.1,0.1,0.2,0.1,0.3,0.2c0.1,0.1,0.2,0.2,0.2,0.3
			S77.8,31.7,77.8,31.8z"/>
		<path class="st2" d="M79.5,28.1c0,0.2,0,0.3-0.1,0.3c-0.1,0.1-0.2,0.1-0.3,0.1c-0.2,0-0.3,0-0.3-0.1c-0.1-0.1-0.1-0.2-0.1-0.3
			c0-0.2,0-0.3,0.1-0.3c0.1-0.1,0.2-0.1,0.3-0.1c0.2,0,0.3,0,0.3,0.1C79.4,27.8,79.5,27.9,79.5,28.1z M79.4,32.8L79.4,32.8
			C79.4,32.9,79.3,32.9,79.4,32.8c-0.1,0.1-0.1,0.1-0.2,0.1c0,0-0.1,0-0.2,0s-0.1,0-0.2,0h-0.1c0,0,0,0-0.1,0c0,0,0,0,0-0.1v-3.5
			c0,0,0,0,0-0.1c0,0,0,0,0.1,0h0.1c0,0,0.1,0,0.2,0s0.1,0,0.2,0h0.1c0,0,0,0,0.1,0c0,0,0,0,0,0.1V32.8z"/>
		<path class="st2" d="M83.8,31c0,0.3,0,0.6-0.1,0.8c-0.1,0.2-0.2,0.5-0.3,0.6s-0.3,0.3-0.5,0.4S82.5,33,82.3,33c-0.1,0-0.2,0-0.3,0
			s-0.2-0.1-0.3-0.1s-0.2-0.1-0.3-0.2c-0.1-0.1-0.2-0.2-0.3-0.3v0.4c0,0,0,0,0,0.1c0,0,0,0-0.1,0s-0.1,0-0.1,0h-0.1
			c-0.1,0-0.1,0-0.1,0h-0.1l0,0c0,0,0,0,0-0.1v-5.2c0,0,0,0,0-0.1c0,0,0,0,0.1,0h0.1c0,0,0.1,0,0.2,0s0.1,0,0.2,0h0.1c0,0,0,0,0.1,0
			c0,0,0,0,0,0.1v2.1c0.1-0.1,0.2-0.2,0.3-0.3s0.2-0.1,0.3-0.2s0.2-0.1,0.3-0.1s0.2,0,0.3,0c0.3,0,0.5,0.1,0.7,0.2s0.3,0.2,0.4,0.4
			s0.2,0.4,0.2,0.6C83.8,30.5,83.8,30.7,83.8,31z M83.1,31.1c0-0.2,0-0.4,0-0.5c0-0.2-0.1-0.3-0.1-0.4c-0.1-0.1-0.2-0.2-0.3-0.3
			c-0.1-0.1-0.3-0.1-0.4-0.1s-0.2,0-0.2,0l-0.2,0.1c0,0-0.2,0.1-0.3,0.2c-0.1,0.1-0.2,0.2-0.3,0.3v1.4c0.2,0.2,0.3,0.4,0.5,0.5
			c0.2,0.1,0.3,0.2,0.5,0.2s0.3,0,0.4-0.1s0.2-0.2,0.3-0.3c0.1-0.1,0.1-0.3,0.2-0.4S83.1,31.2,83.1,31.1z"/>
		<path class="st2" d="M85.5,28.1c0,0.2,0,0.3-0.1,0.3c-0.1,0.1-0.2,0.1-0.3,0.1c-0.2,0-0.3,0-0.3-0.1c-0.1-0.1-0.1-0.2-0.1-0.3
			c0-0.2,0-0.3,0.1-0.3c0.1-0.1,0.2-0.1,0.3-0.1c0.2,0,0.3,0,0.3,0.1C85.5,27.8,85.5,27.9,85.5,28.1z M85.4,32.8L85.4,32.8
			C85.4,32.9,85.4,32.9,85.4,32.8c-0.1,0.1-0.1,0.1-0.2,0.1c0,0-0.1,0-0.2,0s-0.1,0-0.2,0h-0.1c0,0,0,0-0.1,0c0,0,0,0,0-0.1v-3.5
			c0,0,0,0,0-0.1c0,0,0,0,0.1,0h0.1c0,0,0.1,0,0.2,0s0.1,0,0.2,0h0.1c0,0,0,0,0.1,0c0,0,0,0,0,0.1V32.8z"/>
		<path class="st2" d="M87.3,32.8L87.3,32.8C87.2,32.9,87.2,32.9,87.3,32.8c-0.1,0.1-0.1,0.1-0.2,0.1c0,0-0.1,0-0.2,0s-0.1,0-0.2,0
			h-0.1c0,0,0,0-0.1,0c0,0,0,0,0-0.1v-5.2c0,0,0,0,0-0.1c0,0,0,0,0.1,0h0.1c0,0,0.1,0,0.2,0s0.1,0,0.2,0h0.1c0,0,0,0,0.1,0
			c0,0,0,0,0,0.1V32.8z"/>
		<path class="st2" d="M89.2,28.1c0,0.2,0,0.3-0.1,0.3c-0.1,0.1-0.2,0.1-0.3,0.1c-0.2,0-0.3,0-0.3-0.1c-0.1-0.1-0.1-0.2-0.1-0.3
			c0-0.2,0-0.3,0.1-0.3c0.1-0.1,0.2-0.1,0.3-0.1c0.2,0,0.3,0,0.3,0.1C89.1,27.8,89.2,27.9,89.2,28.1z M89.1,32.8L89.1,32.8
			C89.1,32.9,89.1,32.9,89.1,32.8c-0.1,0.1-0.1,0.1-0.2,0.1c0,0-0.1,0-0.2,0s-0.1,0-0.2,0h-0.1c0,0,0,0-0.1,0c0,0,0,0,0-0.1v-3.5
			c0,0,0,0,0-0.1c0,0,0,0,0.1,0h0.1c0,0,0.1,0,0.2,0s0.1,0,0.2,0H89c0,0,0,0,0.1,0c0,0,0,0,0,0.1V32.8z"/>
		<path class="st2" d="M92.1,32.5c0,0.1,0,0.1,0,0.2v0.1c0,0-0.1,0-0.1,0.1h-0.1c0,0-0.1,0-0.2,0s-0.1,0-0.2,0c-0.2,0-0.3,0-0.5-0.1
			c-0.1,0-0.2-0.1-0.3-0.2c-0.1-0.1-0.1-0.2-0.2-0.4c0-0.2-0.1-0.3-0.1-0.5v-2.1h-0.5c0,0-0.1,0-0.1-0.1s0-0.1,0-0.2v-0.1v-0.1l0,0
			c0,0,0,0,0.1,0h0.5v-0.8c0,0,0,0,0-0.1c0,0,0,0,0.1,0h0.1c0,0,0.1,0,0.2,0s0.1,0,0.2,0h0.1c0,0,0,0,0.1,0c0,0,0,0,0,0.1v0.8H92
			c0,0,0,0,0.1,0s0,0,0,0s0,0,0,0.1v0.1c0,0.1,0,0.2,0,0.2L92,29.7h-0.9v2c0,0.2,0,0.4,0.1,0.5s0.2,0.2,0.4,0.2c0.1,0,0.1,0,0.2,0
			s0.1,0,0.1,0H92C92,32.4,92,32.4,92.1,32.5L92.1,32.5L92.1,32.5C92.1,32.4,92.1,32.4,92.1,32.5C92.1,32.5,92.1,32.5,92.1,32.5z"/>
		<path class="st2" d="M94.6,32.9l-0.5,1.3L94,34.3c-0.1,0-0.2,0-0.3,0c-0.1,0-0.1,0-0.2,0h-0.1c0,0,0,0,0-0.1v-0.1l0.5-1.2
			c0,0,0,0-0.1-0.1c0,0,0,0,0-0.1l-1.3-3.4c0-0.1,0-0.1,0-0.1v-0.1h0.1c0,0,0.1,0,0.2,0s0.1,0,0.2,0h0.1c0,0,0,0,0.1,0s0,0,0,0.1
			l1,2.8l0,0l1-2.8c0,0,0-0.1,0.1-0.1h0.1c0,0,0.1,0,0.2,0s0.1,0,0.2,0s0.1,0,0.1,0s0,0,0,0.1s0,0.1,0,0.1L94.6,32.9z"/>
	</g>
</g>
</svg>
